M48
; DRILL file {KiCad 8.0.0} date 2024-03-12T01:41:39-0400
; FORMAT={-:-/ absolute / inch / decimal}
; #@! TF.CreationDate,2024-03-12T01:41:39-04:00
; #@! TF.GenerationSoftware,Kicad,Pcbnew,8.0.0
; #@! TF.FileFunction,NonPlated,1,2,NPTH
FMAT,2
INCH
; #@! TA.AperFunction,NonPlated,NPTH,ComponentDrill
T1C0.0689
; #@! TA.AperFunction,NonPlated,NPTH,ComponentDrill
T2C0.1260
; #@! TA.AperFunction,NonPlated,NPTH,ComponentDrill
T3C0.1575
%
G90
G05
T1
X4.5024Y-2.4579
X4.5028Y-3.2059
X4.9024Y-2.4579
X4.9028Y-3.2059
X5.2508Y-2.4579
X5.2508Y-3.2059
X5.6508Y-2.4579
X5.6508Y-3.2059
X5.9989Y-2.4579
X5.9989Y-3.2059
X6.3989Y-2.4579
X6.3989Y-3.2059
T2
X3.9764Y-2.0079
X3.9764Y-3.6614
X6.6142Y-2.0079
X6.6142Y-3.6614
T3
X4.7024Y-2.4579
X4.7028Y-3.2059
X5.4508Y-2.4579
X5.4508Y-3.2059
X6.1989Y-2.4579
X6.1989Y-3.2059
M30
