%TF.GenerationSoftware,KiCad,Pcbnew,8.0.0*%
%TF.CreationDate,2024-03-12T01:41:39-04:00*%
%TF.ProjectId,mediaKeeb_V1,6d656469-614b-4656-9562-5f56312e6b69,rev?*%
%TF.SameCoordinates,Original*%
%TF.FileFunction,Drillmap*%
%TF.FilePolarity,Positive*%
%FSLAX45Y45*%
G04 Gerber Fmt 4.5, Leading zero omitted, Abs format (unit mm)*
G04 Created by KiCad (PCBNEW 8.0.0) date 2024-03-12 01:41:39*
%MOMM*%
%LPD*%
G01*
G04 APERTURE LIST*
%ADD10C,0.050000*%
%ADD11C,0.200000*%
%ADD12C,0.100000*%
%ADD13C,0.150000*%
G04 APERTURE END LIST*
D10*
X9700000Y-5000000D02*
X9700000Y-9400000D01*
X17200000Y-5000000D02*
X17200000Y-9400000D01*
X10000000Y-9700000D02*
G75*
G02*
X9700000Y-9400000I0J300000D01*
G01*
X17200000Y-9400000D02*
G75*
G02*
X16900000Y-9700000I-300000J0D01*
G01*
X16900000Y-9700000D02*
X10000000Y-9700000D01*
X16900000Y-4700000D02*
G75*
G02*
X17200000Y-5000000I0J-300000D01*
G01*
X10000000Y-4700000D02*
X16900000Y-4700000D01*
X9700000Y-5000000D02*
G75*
G02*
X10000000Y-4700000I300000J0D01*
G01*
D11*
D12*
X10358125Y-6986000D02*
X10458125Y-7086000D01*
X10458125Y-6986000D02*
X10358125Y-7086000D01*
X10358125Y-7240000D02*
X10458125Y-7340000D01*
X10458125Y-7240000D02*
X10358125Y-7340000D01*
X10358125Y-7494000D02*
X10458125Y-7594000D01*
X10458125Y-7494000D02*
X10358125Y-7594000D01*
X10358125Y-7748000D02*
X10458125Y-7848000D01*
X10458125Y-7748000D02*
X10358125Y-7848000D01*
X10358125Y-8002000D02*
X10458125Y-8102000D01*
X10458125Y-8002000D02*
X10358125Y-8102000D01*
D13*
X11638125Y-5989000D02*
G75*
G02*
X11488125Y-5989000I-75000J0D01*
G01*
X11488125Y-5989000D02*
G75*
G02*
X11638125Y-5989000I75000J0D01*
G01*
X11639125Y-7889000D02*
G75*
G02*
X11489125Y-7889000I-75000J0D01*
G01*
X11489125Y-7889000D02*
G75*
G02*
X11639125Y-7889000I75000J0D01*
G01*
X12273125Y-5735000D02*
G75*
G02*
X12123125Y-5735000I-75000J0D01*
G01*
X12123125Y-5735000D02*
G75*
G02*
X12273125Y-5735000I75000J0D01*
G01*
X12274125Y-7635000D02*
G75*
G02*
X12124125Y-7635000I-75000J0D01*
G01*
X12124125Y-7635000D02*
G75*
G02*
X12274125Y-7635000I75000J0D01*
G01*
X13539125Y-5989000D02*
G75*
G02*
X13389125Y-5989000I-75000J0D01*
G01*
X13389125Y-5989000D02*
G75*
G02*
X13539125Y-5989000I75000J0D01*
G01*
X13539125Y-7889000D02*
G75*
G02*
X13389125Y-7889000I-75000J0D01*
G01*
X13389125Y-7889000D02*
G75*
G02*
X13539125Y-7889000I75000J0D01*
G01*
X14174125Y-5735000D02*
G75*
G02*
X14024125Y-5735000I-75000J0D01*
G01*
X14024125Y-5735000D02*
G75*
G02*
X14174125Y-5735000I75000J0D01*
G01*
X14174125Y-7635000D02*
G75*
G02*
X14024125Y-7635000I-75000J0D01*
G01*
X14024125Y-7635000D02*
G75*
G02*
X14174125Y-7635000I75000J0D01*
G01*
X15439125Y-5989000D02*
G75*
G02*
X15289125Y-5989000I-75000J0D01*
G01*
X15289125Y-5989000D02*
G75*
G02*
X15439125Y-5989000I75000J0D01*
G01*
X15439125Y-7889000D02*
G75*
G02*
X15289125Y-7889000I-75000J0D01*
G01*
X15289125Y-7889000D02*
G75*
G02*
X15439125Y-7889000I75000J0D01*
G01*
X16074125Y-5735000D02*
G75*
G02*
X15924125Y-5735000I-75000J0D01*
G01*
X15924125Y-5735000D02*
G75*
G02*
X16074125Y-5735000I75000J0D01*
G01*
X16074125Y-7635000D02*
G75*
G02*
X15924125Y-7635000I-75000J0D01*
G01*
X15924125Y-7635000D02*
G75*
G02*
X16074125Y-7635000I75000J0D01*
G01*
D11*
X9958277Y-10013984D02*
X9958277Y-9813984D01*
X9958277Y-9813984D02*
X10005896Y-9813984D01*
X10005896Y-9813984D02*
X10034467Y-9823508D01*
X10034467Y-9823508D02*
X10053515Y-9842555D01*
X10053515Y-9842555D02*
X10063039Y-9861603D01*
X10063039Y-9861603D02*
X10072563Y-9899698D01*
X10072563Y-9899698D02*
X10072563Y-9928270D01*
X10072563Y-9928270D02*
X10063039Y-9966365D01*
X10063039Y-9966365D02*
X10053515Y-9985412D01*
X10053515Y-9985412D02*
X10034467Y-10004460D01*
X10034467Y-10004460D02*
X10005896Y-10013984D01*
X10005896Y-10013984D02*
X9958277Y-10013984D01*
X10158277Y-10013984D02*
X10158277Y-9880650D01*
X10158277Y-9918746D02*
X10167801Y-9899698D01*
X10167801Y-9899698D02*
X10177324Y-9890174D01*
X10177324Y-9890174D02*
X10196372Y-9880650D01*
X10196372Y-9880650D02*
X10215420Y-9880650D01*
X10282086Y-10013984D02*
X10282086Y-9880650D01*
X10282086Y-9813984D02*
X10272563Y-9823508D01*
X10272563Y-9823508D02*
X10282086Y-9833031D01*
X10282086Y-9833031D02*
X10291610Y-9823508D01*
X10291610Y-9823508D02*
X10282086Y-9813984D01*
X10282086Y-9813984D02*
X10282086Y-9833031D01*
X10405896Y-10013984D02*
X10386848Y-10004460D01*
X10386848Y-10004460D02*
X10377324Y-9985412D01*
X10377324Y-9985412D02*
X10377324Y-9813984D01*
X10510658Y-10013984D02*
X10491610Y-10004460D01*
X10491610Y-10004460D02*
X10482086Y-9985412D01*
X10482086Y-9985412D02*
X10482086Y-9813984D01*
X10739229Y-10013984D02*
X10739229Y-9813984D01*
X10739229Y-9813984D02*
X10805896Y-9956841D01*
X10805896Y-9956841D02*
X10872563Y-9813984D01*
X10872563Y-9813984D02*
X10872563Y-10013984D01*
X11053515Y-10013984D02*
X11053515Y-9909222D01*
X11053515Y-9909222D02*
X11043991Y-9890174D01*
X11043991Y-9890174D02*
X11024944Y-9880650D01*
X11024944Y-9880650D02*
X10986848Y-9880650D01*
X10986848Y-9880650D02*
X10967801Y-9890174D01*
X11053515Y-10004460D02*
X11034467Y-10013984D01*
X11034467Y-10013984D02*
X10986848Y-10013984D01*
X10986848Y-10013984D02*
X10967801Y-10004460D01*
X10967801Y-10004460D02*
X10958277Y-9985412D01*
X10958277Y-9985412D02*
X10958277Y-9966365D01*
X10958277Y-9966365D02*
X10967801Y-9947317D01*
X10967801Y-9947317D02*
X10986848Y-9937793D01*
X10986848Y-9937793D02*
X11034467Y-9937793D01*
X11034467Y-9937793D02*
X11053515Y-9928270D01*
X11148753Y-9880650D02*
X11148753Y-10080650D01*
X11148753Y-9890174D02*
X11167801Y-9880650D01*
X11167801Y-9880650D02*
X11205896Y-9880650D01*
X11205896Y-9880650D02*
X11224943Y-9890174D01*
X11224943Y-9890174D02*
X11234467Y-9899698D01*
X11234467Y-9899698D02*
X11243991Y-9918746D01*
X11243991Y-9918746D02*
X11243991Y-9975889D01*
X11243991Y-9975889D02*
X11234467Y-9994936D01*
X11234467Y-9994936D02*
X11224943Y-10004460D01*
X11224943Y-10004460D02*
X11205896Y-10013984D01*
X11205896Y-10013984D02*
X11167801Y-10013984D01*
X11167801Y-10013984D02*
X11148753Y-10004460D01*
X11329705Y-9994936D02*
X11339229Y-10004460D01*
X11339229Y-10004460D02*
X11329705Y-10013984D01*
X11329705Y-10013984D02*
X11320182Y-10004460D01*
X11320182Y-10004460D02*
X11329705Y-9994936D01*
X11329705Y-9994936D02*
X11329705Y-10013984D01*
X11329705Y-9890174D02*
X11339229Y-9899698D01*
X11339229Y-9899698D02*
X11329705Y-9909222D01*
X11329705Y-9909222D02*
X11320182Y-9899698D01*
X11320182Y-9899698D02*
X11329705Y-9890174D01*
X11329705Y-9890174D02*
X11329705Y-9909222D01*
D12*
X9597500Y-10292500D02*
X9697500Y-10392500D01*
X9697500Y-10292500D02*
X9597500Y-10392500D01*
D11*
X10063039Y-10433984D02*
X9948753Y-10433984D01*
X10005896Y-10433984D02*
X10005896Y-10233984D01*
X10005896Y-10233984D02*
X9986848Y-10262555D01*
X9986848Y-10262555D02*
X9967801Y-10281603D01*
X9967801Y-10281603D02*
X9948753Y-10291127D01*
X10148753Y-10414936D02*
X10158277Y-10424460D01*
X10158277Y-10424460D02*
X10148753Y-10433984D01*
X10148753Y-10433984D02*
X10139229Y-10424460D01*
X10139229Y-10424460D02*
X10148753Y-10414936D01*
X10148753Y-10414936D02*
X10148753Y-10433984D01*
X10282086Y-10233984D02*
X10301134Y-10233984D01*
X10301134Y-10233984D02*
X10320182Y-10243508D01*
X10320182Y-10243508D02*
X10329705Y-10253031D01*
X10329705Y-10253031D02*
X10339229Y-10272079D01*
X10339229Y-10272079D02*
X10348753Y-10310174D01*
X10348753Y-10310174D02*
X10348753Y-10357793D01*
X10348753Y-10357793D02*
X10339229Y-10395889D01*
X10339229Y-10395889D02*
X10329705Y-10414936D01*
X10329705Y-10414936D02*
X10320182Y-10424460D01*
X10320182Y-10424460D02*
X10301134Y-10433984D01*
X10301134Y-10433984D02*
X10282086Y-10433984D01*
X10282086Y-10433984D02*
X10263039Y-10424460D01*
X10263039Y-10424460D02*
X10253515Y-10414936D01*
X10253515Y-10414936D02*
X10243991Y-10395889D01*
X10243991Y-10395889D02*
X10234467Y-10357793D01*
X10234467Y-10357793D02*
X10234467Y-10310174D01*
X10234467Y-10310174D02*
X10243991Y-10272079D01*
X10243991Y-10272079D02*
X10253515Y-10253031D01*
X10253515Y-10253031D02*
X10263039Y-10243508D01*
X10263039Y-10243508D02*
X10282086Y-10233984D01*
X10472563Y-10233984D02*
X10491610Y-10233984D01*
X10491610Y-10233984D02*
X10510658Y-10243508D01*
X10510658Y-10243508D02*
X10520182Y-10253031D01*
X10520182Y-10253031D02*
X10529705Y-10272079D01*
X10529705Y-10272079D02*
X10539229Y-10310174D01*
X10539229Y-10310174D02*
X10539229Y-10357793D01*
X10539229Y-10357793D02*
X10529705Y-10395889D01*
X10529705Y-10395889D02*
X10520182Y-10414936D01*
X10520182Y-10414936D02*
X10510658Y-10424460D01*
X10510658Y-10424460D02*
X10491610Y-10433984D01*
X10491610Y-10433984D02*
X10472563Y-10433984D01*
X10472563Y-10433984D02*
X10453515Y-10424460D01*
X10453515Y-10424460D02*
X10443991Y-10414936D01*
X10443991Y-10414936D02*
X10434467Y-10395889D01*
X10434467Y-10395889D02*
X10424944Y-10357793D01*
X10424944Y-10357793D02*
X10424944Y-10310174D01*
X10424944Y-10310174D02*
X10434467Y-10272079D01*
X10434467Y-10272079D02*
X10443991Y-10253031D01*
X10443991Y-10253031D02*
X10453515Y-10243508D01*
X10453515Y-10243508D02*
X10472563Y-10233984D01*
X10663039Y-10233984D02*
X10682086Y-10233984D01*
X10682086Y-10233984D02*
X10701134Y-10243508D01*
X10701134Y-10243508D02*
X10710658Y-10253031D01*
X10710658Y-10253031D02*
X10720182Y-10272079D01*
X10720182Y-10272079D02*
X10729705Y-10310174D01*
X10729705Y-10310174D02*
X10729705Y-10357793D01*
X10729705Y-10357793D02*
X10720182Y-10395889D01*
X10720182Y-10395889D02*
X10710658Y-10414936D01*
X10710658Y-10414936D02*
X10701134Y-10424460D01*
X10701134Y-10424460D02*
X10682086Y-10433984D01*
X10682086Y-10433984D02*
X10663039Y-10433984D01*
X10663039Y-10433984D02*
X10643991Y-10424460D01*
X10643991Y-10424460D02*
X10634467Y-10414936D01*
X10634467Y-10414936D02*
X10624944Y-10395889D01*
X10624944Y-10395889D02*
X10615420Y-10357793D01*
X10615420Y-10357793D02*
X10615420Y-10310174D01*
X10615420Y-10310174D02*
X10624944Y-10272079D01*
X10624944Y-10272079D02*
X10634467Y-10253031D01*
X10634467Y-10253031D02*
X10643991Y-10243508D01*
X10643991Y-10243508D02*
X10663039Y-10233984D01*
X10815420Y-10433984D02*
X10815420Y-10300650D01*
X10815420Y-10319698D02*
X10824944Y-10310174D01*
X10824944Y-10310174D02*
X10843991Y-10300650D01*
X10843991Y-10300650D02*
X10872563Y-10300650D01*
X10872563Y-10300650D02*
X10891610Y-10310174D01*
X10891610Y-10310174D02*
X10901134Y-10329222D01*
X10901134Y-10329222D02*
X10901134Y-10433984D01*
X10901134Y-10329222D02*
X10910658Y-10310174D01*
X10910658Y-10310174D02*
X10929705Y-10300650D01*
X10929705Y-10300650D02*
X10958277Y-10300650D01*
X10958277Y-10300650D02*
X10977325Y-10310174D01*
X10977325Y-10310174D02*
X10986848Y-10329222D01*
X10986848Y-10329222D02*
X10986848Y-10433984D01*
X11082086Y-10433984D02*
X11082086Y-10300650D01*
X11082086Y-10319698D02*
X11091610Y-10310174D01*
X11091610Y-10310174D02*
X11110658Y-10300650D01*
X11110658Y-10300650D02*
X11139229Y-10300650D01*
X11139229Y-10300650D02*
X11158277Y-10310174D01*
X11158277Y-10310174D02*
X11167801Y-10329222D01*
X11167801Y-10329222D02*
X11167801Y-10433984D01*
X11167801Y-10329222D02*
X11177325Y-10310174D01*
X11177325Y-10310174D02*
X11196372Y-10300650D01*
X11196372Y-10300650D02*
X11224943Y-10300650D01*
X11224943Y-10300650D02*
X11243991Y-10310174D01*
X11243991Y-10310174D02*
X11253515Y-10329222D01*
X11253515Y-10329222D02*
X11253515Y-10433984D01*
X11643991Y-10224460D02*
X11472563Y-10481603D01*
X11901134Y-10233984D02*
X11920182Y-10233984D01*
X11920182Y-10233984D02*
X11939229Y-10243508D01*
X11939229Y-10243508D02*
X11948753Y-10253031D01*
X11948753Y-10253031D02*
X11958277Y-10272079D01*
X11958277Y-10272079D02*
X11967801Y-10310174D01*
X11967801Y-10310174D02*
X11967801Y-10357793D01*
X11967801Y-10357793D02*
X11958277Y-10395889D01*
X11958277Y-10395889D02*
X11948753Y-10414936D01*
X11948753Y-10414936D02*
X11939229Y-10424460D01*
X11939229Y-10424460D02*
X11920182Y-10433984D01*
X11920182Y-10433984D02*
X11901134Y-10433984D01*
X11901134Y-10433984D02*
X11882086Y-10424460D01*
X11882086Y-10424460D02*
X11872563Y-10414936D01*
X11872563Y-10414936D02*
X11863039Y-10395889D01*
X11863039Y-10395889D02*
X11853515Y-10357793D01*
X11853515Y-10357793D02*
X11853515Y-10310174D01*
X11853515Y-10310174D02*
X11863039Y-10272079D01*
X11863039Y-10272079D02*
X11872563Y-10253031D01*
X11872563Y-10253031D02*
X11882086Y-10243508D01*
X11882086Y-10243508D02*
X11901134Y-10233984D01*
X12053515Y-10414936D02*
X12063039Y-10424460D01*
X12063039Y-10424460D02*
X12053515Y-10433984D01*
X12053515Y-10433984D02*
X12043991Y-10424460D01*
X12043991Y-10424460D02*
X12053515Y-10414936D01*
X12053515Y-10414936D02*
X12053515Y-10433984D01*
X12186848Y-10233984D02*
X12205896Y-10233984D01*
X12205896Y-10233984D02*
X12224944Y-10243508D01*
X12224944Y-10243508D02*
X12234467Y-10253031D01*
X12234467Y-10253031D02*
X12243991Y-10272079D01*
X12243991Y-10272079D02*
X12253515Y-10310174D01*
X12253515Y-10310174D02*
X12253515Y-10357793D01*
X12253515Y-10357793D02*
X12243991Y-10395889D01*
X12243991Y-10395889D02*
X12234467Y-10414936D01*
X12234467Y-10414936D02*
X12224944Y-10424460D01*
X12224944Y-10424460D02*
X12205896Y-10433984D01*
X12205896Y-10433984D02*
X12186848Y-10433984D01*
X12186848Y-10433984D02*
X12167801Y-10424460D01*
X12167801Y-10424460D02*
X12158277Y-10414936D01*
X12158277Y-10414936D02*
X12148753Y-10395889D01*
X12148753Y-10395889D02*
X12139229Y-10357793D01*
X12139229Y-10357793D02*
X12139229Y-10310174D01*
X12139229Y-10310174D02*
X12148753Y-10272079D01*
X12148753Y-10272079D02*
X12158277Y-10253031D01*
X12158277Y-10253031D02*
X12167801Y-10243508D01*
X12167801Y-10243508D02*
X12186848Y-10233984D01*
X12320182Y-10233984D02*
X12443991Y-10233984D01*
X12443991Y-10233984D02*
X12377325Y-10310174D01*
X12377325Y-10310174D02*
X12405896Y-10310174D01*
X12405896Y-10310174D02*
X12424944Y-10319698D01*
X12424944Y-10319698D02*
X12434467Y-10329222D01*
X12434467Y-10329222D02*
X12443991Y-10348270D01*
X12443991Y-10348270D02*
X12443991Y-10395889D01*
X12443991Y-10395889D02*
X12434467Y-10414936D01*
X12434467Y-10414936D02*
X12424944Y-10424460D01*
X12424944Y-10424460D02*
X12405896Y-10433984D01*
X12405896Y-10433984D02*
X12348753Y-10433984D01*
X12348753Y-10433984D02*
X12329706Y-10424460D01*
X12329706Y-10424460D02*
X12320182Y-10414936D01*
X12539229Y-10433984D02*
X12577325Y-10433984D01*
X12577325Y-10433984D02*
X12596372Y-10424460D01*
X12596372Y-10424460D02*
X12605896Y-10414936D01*
X12605896Y-10414936D02*
X12624944Y-10386365D01*
X12624944Y-10386365D02*
X12634467Y-10348270D01*
X12634467Y-10348270D02*
X12634467Y-10272079D01*
X12634467Y-10272079D02*
X12624944Y-10253031D01*
X12624944Y-10253031D02*
X12615420Y-10243508D01*
X12615420Y-10243508D02*
X12596372Y-10233984D01*
X12596372Y-10233984D02*
X12558277Y-10233984D01*
X12558277Y-10233984D02*
X12539229Y-10243508D01*
X12539229Y-10243508D02*
X12529706Y-10253031D01*
X12529706Y-10253031D02*
X12520182Y-10272079D01*
X12520182Y-10272079D02*
X12520182Y-10319698D01*
X12520182Y-10319698D02*
X12529706Y-10338746D01*
X12529706Y-10338746D02*
X12539229Y-10348270D01*
X12539229Y-10348270D02*
X12558277Y-10357793D01*
X12558277Y-10357793D02*
X12596372Y-10357793D01*
X12596372Y-10357793D02*
X12615420Y-10348270D01*
X12615420Y-10348270D02*
X12624944Y-10338746D01*
X12624944Y-10338746D02*
X12634467Y-10319698D01*
X12805896Y-10300650D02*
X12805896Y-10433984D01*
X12758277Y-10224460D02*
X12710658Y-10367317D01*
X12710658Y-10367317D02*
X12834467Y-10367317D01*
X12901134Y-10233984D02*
X12901134Y-10272079D01*
X12977325Y-10233984D02*
X12977325Y-10272079D01*
X13272563Y-10510174D02*
X13263039Y-10500650D01*
X13263039Y-10500650D02*
X13243991Y-10472079D01*
X13243991Y-10472079D02*
X13234468Y-10453031D01*
X13234468Y-10453031D02*
X13224944Y-10424460D01*
X13224944Y-10424460D02*
X13215420Y-10376841D01*
X13215420Y-10376841D02*
X13215420Y-10338746D01*
X13215420Y-10338746D02*
X13224944Y-10291127D01*
X13224944Y-10291127D02*
X13234468Y-10262555D01*
X13234468Y-10262555D02*
X13243991Y-10243508D01*
X13243991Y-10243508D02*
X13263039Y-10214936D01*
X13263039Y-10214936D02*
X13272563Y-10205412D01*
X13443991Y-10233984D02*
X13348753Y-10233984D01*
X13348753Y-10233984D02*
X13339229Y-10329222D01*
X13339229Y-10329222D02*
X13348753Y-10319698D01*
X13348753Y-10319698D02*
X13367801Y-10310174D01*
X13367801Y-10310174D02*
X13415420Y-10310174D01*
X13415420Y-10310174D02*
X13434468Y-10319698D01*
X13434468Y-10319698D02*
X13443991Y-10329222D01*
X13443991Y-10329222D02*
X13453515Y-10348270D01*
X13453515Y-10348270D02*
X13453515Y-10395889D01*
X13453515Y-10395889D02*
X13443991Y-10414936D01*
X13443991Y-10414936D02*
X13434468Y-10424460D01*
X13434468Y-10424460D02*
X13415420Y-10433984D01*
X13415420Y-10433984D02*
X13367801Y-10433984D01*
X13367801Y-10433984D02*
X13348753Y-10424460D01*
X13348753Y-10424460D02*
X13339229Y-10414936D01*
X13691610Y-10433984D02*
X13691610Y-10233984D01*
X13777325Y-10433984D02*
X13777325Y-10329222D01*
X13777325Y-10329222D02*
X13767801Y-10310174D01*
X13767801Y-10310174D02*
X13748753Y-10300650D01*
X13748753Y-10300650D02*
X13720182Y-10300650D01*
X13720182Y-10300650D02*
X13701134Y-10310174D01*
X13701134Y-10310174D02*
X13691610Y-10319698D01*
X13901134Y-10433984D02*
X13882087Y-10424460D01*
X13882087Y-10424460D02*
X13872563Y-10414936D01*
X13872563Y-10414936D02*
X13863039Y-10395889D01*
X13863039Y-10395889D02*
X13863039Y-10338746D01*
X13863039Y-10338746D02*
X13872563Y-10319698D01*
X13872563Y-10319698D02*
X13882087Y-10310174D01*
X13882087Y-10310174D02*
X13901134Y-10300650D01*
X13901134Y-10300650D02*
X13929706Y-10300650D01*
X13929706Y-10300650D02*
X13948753Y-10310174D01*
X13948753Y-10310174D02*
X13958277Y-10319698D01*
X13958277Y-10319698D02*
X13967801Y-10338746D01*
X13967801Y-10338746D02*
X13967801Y-10395889D01*
X13967801Y-10395889D02*
X13958277Y-10414936D01*
X13958277Y-10414936D02*
X13948753Y-10424460D01*
X13948753Y-10424460D02*
X13929706Y-10433984D01*
X13929706Y-10433984D02*
X13901134Y-10433984D01*
X14082087Y-10433984D02*
X14063039Y-10424460D01*
X14063039Y-10424460D02*
X14053515Y-10405412D01*
X14053515Y-10405412D02*
X14053515Y-10233984D01*
X14234468Y-10424460D02*
X14215420Y-10433984D01*
X14215420Y-10433984D02*
X14177325Y-10433984D01*
X14177325Y-10433984D02*
X14158277Y-10424460D01*
X14158277Y-10424460D02*
X14148753Y-10405412D01*
X14148753Y-10405412D02*
X14148753Y-10329222D01*
X14148753Y-10329222D02*
X14158277Y-10310174D01*
X14158277Y-10310174D02*
X14177325Y-10300650D01*
X14177325Y-10300650D02*
X14215420Y-10300650D01*
X14215420Y-10300650D02*
X14234468Y-10310174D01*
X14234468Y-10310174D02*
X14243991Y-10329222D01*
X14243991Y-10329222D02*
X14243991Y-10348270D01*
X14243991Y-10348270D02*
X14148753Y-10367317D01*
X14320182Y-10424460D02*
X14339230Y-10433984D01*
X14339230Y-10433984D02*
X14377325Y-10433984D01*
X14377325Y-10433984D02*
X14396372Y-10424460D01*
X14396372Y-10424460D02*
X14405896Y-10405412D01*
X14405896Y-10405412D02*
X14405896Y-10395889D01*
X14405896Y-10395889D02*
X14396372Y-10376841D01*
X14396372Y-10376841D02*
X14377325Y-10367317D01*
X14377325Y-10367317D02*
X14348753Y-10367317D01*
X14348753Y-10367317D02*
X14329706Y-10357793D01*
X14329706Y-10357793D02*
X14320182Y-10338746D01*
X14320182Y-10338746D02*
X14320182Y-10329222D01*
X14320182Y-10329222D02*
X14329706Y-10310174D01*
X14329706Y-10310174D02*
X14348753Y-10300650D01*
X14348753Y-10300650D02*
X14377325Y-10300650D01*
X14377325Y-10300650D02*
X14396372Y-10310174D01*
X14472563Y-10510174D02*
X14482087Y-10500650D01*
X14482087Y-10500650D02*
X14501134Y-10472079D01*
X14501134Y-10472079D02*
X14510658Y-10453031D01*
X14510658Y-10453031D02*
X14520182Y-10424460D01*
X14520182Y-10424460D02*
X14529706Y-10376841D01*
X14529706Y-10376841D02*
X14529706Y-10338746D01*
X14529706Y-10338746D02*
X14520182Y-10291127D01*
X14520182Y-10291127D02*
X14510658Y-10262555D01*
X14510658Y-10262555D02*
X14501134Y-10243508D01*
X14501134Y-10243508D02*
X14482087Y-10214936D01*
X14482087Y-10214936D02*
X14472563Y-10205412D01*
D13*
X9697500Y-10606500D02*
G75*
G02*
X9547500Y-10606500I-75000J0D01*
G01*
X9547500Y-10606500D02*
G75*
G02*
X9697500Y-10606500I75000J0D01*
G01*
D11*
X10063039Y-10697984D02*
X9948753Y-10697984D01*
X10005896Y-10697984D02*
X10005896Y-10497984D01*
X10005896Y-10497984D02*
X9986848Y-10526555D01*
X9986848Y-10526555D02*
X9967801Y-10545603D01*
X9967801Y-10545603D02*
X9948753Y-10555127D01*
X10148753Y-10678936D02*
X10158277Y-10688460D01*
X10158277Y-10688460D02*
X10148753Y-10697984D01*
X10148753Y-10697984D02*
X10139229Y-10688460D01*
X10139229Y-10688460D02*
X10148753Y-10678936D01*
X10148753Y-10678936D02*
X10148753Y-10697984D01*
X10339229Y-10497984D02*
X10243991Y-10497984D01*
X10243991Y-10497984D02*
X10234467Y-10593222D01*
X10234467Y-10593222D02*
X10243991Y-10583698D01*
X10243991Y-10583698D02*
X10263039Y-10574174D01*
X10263039Y-10574174D02*
X10310658Y-10574174D01*
X10310658Y-10574174D02*
X10329705Y-10583698D01*
X10329705Y-10583698D02*
X10339229Y-10593222D01*
X10339229Y-10593222D02*
X10348753Y-10612270D01*
X10348753Y-10612270D02*
X10348753Y-10659889D01*
X10348753Y-10659889D02*
X10339229Y-10678936D01*
X10339229Y-10678936D02*
X10329705Y-10688460D01*
X10329705Y-10688460D02*
X10310658Y-10697984D01*
X10310658Y-10697984D02*
X10263039Y-10697984D01*
X10263039Y-10697984D02*
X10243991Y-10688460D01*
X10243991Y-10688460D02*
X10234467Y-10678936D01*
X10472563Y-10497984D02*
X10491610Y-10497984D01*
X10491610Y-10497984D02*
X10510658Y-10507508D01*
X10510658Y-10507508D02*
X10520182Y-10517031D01*
X10520182Y-10517031D02*
X10529705Y-10536079D01*
X10529705Y-10536079D02*
X10539229Y-10574174D01*
X10539229Y-10574174D02*
X10539229Y-10621793D01*
X10539229Y-10621793D02*
X10529705Y-10659889D01*
X10529705Y-10659889D02*
X10520182Y-10678936D01*
X10520182Y-10678936D02*
X10510658Y-10688460D01*
X10510658Y-10688460D02*
X10491610Y-10697984D01*
X10491610Y-10697984D02*
X10472563Y-10697984D01*
X10472563Y-10697984D02*
X10453515Y-10688460D01*
X10453515Y-10688460D02*
X10443991Y-10678936D01*
X10443991Y-10678936D02*
X10434467Y-10659889D01*
X10434467Y-10659889D02*
X10424944Y-10621793D01*
X10424944Y-10621793D02*
X10424944Y-10574174D01*
X10424944Y-10574174D02*
X10434467Y-10536079D01*
X10434467Y-10536079D02*
X10443991Y-10517031D01*
X10443991Y-10517031D02*
X10453515Y-10507508D01*
X10453515Y-10507508D02*
X10472563Y-10497984D01*
X10663039Y-10497984D02*
X10682086Y-10497984D01*
X10682086Y-10497984D02*
X10701134Y-10507508D01*
X10701134Y-10507508D02*
X10710658Y-10517031D01*
X10710658Y-10517031D02*
X10720182Y-10536079D01*
X10720182Y-10536079D02*
X10729705Y-10574174D01*
X10729705Y-10574174D02*
X10729705Y-10621793D01*
X10729705Y-10621793D02*
X10720182Y-10659889D01*
X10720182Y-10659889D02*
X10710658Y-10678936D01*
X10710658Y-10678936D02*
X10701134Y-10688460D01*
X10701134Y-10688460D02*
X10682086Y-10697984D01*
X10682086Y-10697984D02*
X10663039Y-10697984D01*
X10663039Y-10697984D02*
X10643991Y-10688460D01*
X10643991Y-10688460D02*
X10634467Y-10678936D01*
X10634467Y-10678936D02*
X10624944Y-10659889D01*
X10624944Y-10659889D02*
X10615420Y-10621793D01*
X10615420Y-10621793D02*
X10615420Y-10574174D01*
X10615420Y-10574174D02*
X10624944Y-10536079D01*
X10624944Y-10536079D02*
X10634467Y-10517031D01*
X10634467Y-10517031D02*
X10643991Y-10507508D01*
X10643991Y-10507508D02*
X10663039Y-10497984D01*
X10815420Y-10697984D02*
X10815420Y-10564650D01*
X10815420Y-10583698D02*
X10824944Y-10574174D01*
X10824944Y-10574174D02*
X10843991Y-10564650D01*
X10843991Y-10564650D02*
X10872563Y-10564650D01*
X10872563Y-10564650D02*
X10891610Y-10574174D01*
X10891610Y-10574174D02*
X10901134Y-10593222D01*
X10901134Y-10593222D02*
X10901134Y-10697984D01*
X10901134Y-10593222D02*
X10910658Y-10574174D01*
X10910658Y-10574174D02*
X10929705Y-10564650D01*
X10929705Y-10564650D02*
X10958277Y-10564650D01*
X10958277Y-10564650D02*
X10977325Y-10574174D01*
X10977325Y-10574174D02*
X10986848Y-10593222D01*
X10986848Y-10593222D02*
X10986848Y-10697984D01*
X11082086Y-10697984D02*
X11082086Y-10564650D01*
X11082086Y-10583698D02*
X11091610Y-10574174D01*
X11091610Y-10574174D02*
X11110658Y-10564650D01*
X11110658Y-10564650D02*
X11139229Y-10564650D01*
X11139229Y-10564650D02*
X11158277Y-10574174D01*
X11158277Y-10574174D02*
X11167801Y-10593222D01*
X11167801Y-10593222D02*
X11167801Y-10697984D01*
X11167801Y-10593222D02*
X11177325Y-10574174D01*
X11177325Y-10574174D02*
X11196372Y-10564650D01*
X11196372Y-10564650D02*
X11224943Y-10564650D01*
X11224943Y-10564650D02*
X11243991Y-10574174D01*
X11243991Y-10574174D02*
X11253515Y-10593222D01*
X11253515Y-10593222D02*
X11253515Y-10697984D01*
X11643991Y-10488460D02*
X11472563Y-10745603D01*
X11901134Y-10497984D02*
X11920182Y-10497984D01*
X11920182Y-10497984D02*
X11939229Y-10507508D01*
X11939229Y-10507508D02*
X11948753Y-10517031D01*
X11948753Y-10517031D02*
X11958277Y-10536079D01*
X11958277Y-10536079D02*
X11967801Y-10574174D01*
X11967801Y-10574174D02*
X11967801Y-10621793D01*
X11967801Y-10621793D02*
X11958277Y-10659889D01*
X11958277Y-10659889D02*
X11948753Y-10678936D01*
X11948753Y-10678936D02*
X11939229Y-10688460D01*
X11939229Y-10688460D02*
X11920182Y-10697984D01*
X11920182Y-10697984D02*
X11901134Y-10697984D01*
X11901134Y-10697984D02*
X11882086Y-10688460D01*
X11882086Y-10688460D02*
X11872563Y-10678936D01*
X11872563Y-10678936D02*
X11863039Y-10659889D01*
X11863039Y-10659889D02*
X11853515Y-10621793D01*
X11853515Y-10621793D02*
X11853515Y-10574174D01*
X11853515Y-10574174D02*
X11863039Y-10536079D01*
X11863039Y-10536079D02*
X11872563Y-10517031D01*
X11872563Y-10517031D02*
X11882086Y-10507508D01*
X11882086Y-10507508D02*
X11901134Y-10497984D01*
X12053515Y-10678936D02*
X12063039Y-10688460D01*
X12063039Y-10688460D02*
X12053515Y-10697984D01*
X12053515Y-10697984D02*
X12043991Y-10688460D01*
X12043991Y-10688460D02*
X12053515Y-10678936D01*
X12053515Y-10678936D02*
X12053515Y-10697984D01*
X12186848Y-10497984D02*
X12205896Y-10497984D01*
X12205896Y-10497984D02*
X12224944Y-10507508D01*
X12224944Y-10507508D02*
X12234467Y-10517031D01*
X12234467Y-10517031D02*
X12243991Y-10536079D01*
X12243991Y-10536079D02*
X12253515Y-10574174D01*
X12253515Y-10574174D02*
X12253515Y-10621793D01*
X12253515Y-10621793D02*
X12243991Y-10659889D01*
X12243991Y-10659889D02*
X12234467Y-10678936D01*
X12234467Y-10678936D02*
X12224944Y-10688460D01*
X12224944Y-10688460D02*
X12205896Y-10697984D01*
X12205896Y-10697984D02*
X12186848Y-10697984D01*
X12186848Y-10697984D02*
X12167801Y-10688460D01*
X12167801Y-10688460D02*
X12158277Y-10678936D01*
X12158277Y-10678936D02*
X12148753Y-10659889D01*
X12148753Y-10659889D02*
X12139229Y-10621793D01*
X12139229Y-10621793D02*
X12139229Y-10574174D01*
X12139229Y-10574174D02*
X12148753Y-10536079D01*
X12148753Y-10536079D02*
X12158277Y-10517031D01*
X12158277Y-10517031D02*
X12167801Y-10507508D01*
X12167801Y-10507508D02*
X12186848Y-10497984D01*
X12434467Y-10497984D02*
X12339229Y-10497984D01*
X12339229Y-10497984D02*
X12329706Y-10593222D01*
X12329706Y-10593222D02*
X12339229Y-10583698D01*
X12339229Y-10583698D02*
X12358277Y-10574174D01*
X12358277Y-10574174D02*
X12405896Y-10574174D01*
X12405896Y-10574174D02*
X12424944Y-10583698D01*
X12424944Y-10583698D02*
X12434467Y-10593222D01*
X12434467Y-10593222D02*
X12443991Y-10612270D01*
X12443991Y-10612270D02*
X12443991Y-10659889D01*
X12443991Y-10659889D02*
X12434467Y-10678936D01*
X12434467Y-10678936D02*
X12424944Y-10688460D01*
X12424944Y-10688460D02*
X12405896Y-10697984D01*
X12405896Y-10697984D02*
X12358277Y-10697984D01*
X12358277Y-10697984D02*
X12339229Y-10688460D01*
X12339229Y-10688460D02*
X12329706Y-10678936D01*
X12539229Y-10697984D02*
X12577325Y-10697984D01*
X12577325Y-10697984D02*
X12596372Y-10688460D01*
X12596372Y-10688460D02*
X12605896Y-10678936D01*
X12605896Y-10678936D02*
X12624944Y-10650365D01*
X12624944Y-10650365D02*
X12634467Y-10612270D01*
X12634467Y-10612270D02*
X12634467Y-10536079D01*
X12634467Y-10536079D02*
X12624944Y-10517031D01*
X12624944Y-10517031D02*
X12615420Y-10507508D01*
X12615420Y-10507508D02*
X12596372Y-10497984D01*
X12596372Y-10497984D02*
X12558277Y-10497984D01*
X12558277Y-10497984D02*
X12539229Y-10507508D01*
X12539229Y-10507508D02*
X12529706Y-10517031D01*
X12529706Y-10517031D02*
X12520182Y-10536079D01*
X12520182Y-10536079D02*
X12520182Y-10583698D01*
X12520182Y-10583698D02*
X12529706Y-10602746D01*
X12529706Y-10602746D02*
X12539229Y-10612270D01*
X12539229Y-10612270D02*
X12558277Y-10621793D01*
X12558277Y-10621793D02*
X12596372Y-10621793D01*
X12596372Y-10621793D02*
X12615420Y-10612270D01*
X12615420Y-10612270D02*
X12624944Y-10602746D01*
X12624944Y-10602746D02*
X12634467Y-10583698D01*
X12824944Y-10697984D02*
X12710658Y-10697984D01*
X12767801Y-10697984D02*
X12767801Y-10497984D01*
X12767801Y-10497984D02*
X12748753Y-10526555D01*
X12748753Y-10526555D02*
X12729706Y-10545603D01*
X12729706Y-10545603D02*
X12710658Y-10555127D01*
X12901134Y-10497984D02*
X12901134Y-10536079D01*
X12977325Y-10497984D02*
X12977325Y-10536079D01*
X13272563Y-10774174D02*
X13263039Y-10764650D01*
X13263039Y-10764650D02*
X13243991Y-10736079D01*
X13243991Y-10736079D02*
X13234468Y-10717031D01*
X13234468Y-10717031D02*
X13224944Y-10688460D01*
X13224944Y-10688460D02*
X13215420Y-10640841D01*
X13215420Y-10640841D02*
X13215420Y-10602746D01*
X13215420Y-10602746D02*
X13224944Y-10555127D01*
X13224944Y-10555127D02*
X13234468Y-10526555D01*
X13234468Y-10526555D02*
X13243991Y-10507508D01*
X13243991Y-10507508D02*
X13263039Y-10478936D01*
X13263039Y-10478936D02*
X13272563Y-10469412D01*
X13453515Y-10697984D02*
X13339229Y-10697984D01*
X13396372Y-10697984D02*
X13396372Y-10497984D01*
X13396372Y-10497984D02*
X13377325Y-10526555D01*
X13377325Y-10526555D02*
X13358277Y-10545603D01*
X13358277Y-10545603D02*
X13339229Y-10555127D01*
X13529706Y-10517031D02*
X13539229Y-10507508D01*
X13539229Y-10507508D02*
X13558277Y-10497984D01*
X13558277Y-10497984D02*
X13605896Y-10497984D01*
X13605896Y-10497984D02*
X13624944Y-10507508D01*
X13624944Y-10507508D02*
X13634468Y-10517031D01*
X13634468Y-10517031D02*
X13643991Y-10536079D01*
X13643991Y-10536079D02*
X13643991Y-10555127D01*
X13643991Y-10555127D02*
X13634468Y-10583698D01*
X13634468Y-10583698D02*
X13520182Y-10697984D01*
X13520182Y-10697984D02*
X13643991Y-10697984D01*
X13882087Y-10697984D02*
X13882087Y-10497984D01*
X13967801Y-10697984D02*
X13967801Y-10593222D01*
X13967801Y-10593222D02*
X13958277Y-10574174D01*
X13958277Y-10574174D02*
X13939230Y-10564650D01*
X13939230Y-10564650D02*
X13910658Y-10564650D01*
X13910658Y-10564650D02*
X13891610Y-10574174D01*
X13891610Y-10574174D02*
X13882087Y-10583698D01*
X14091610Y-10697984D02*
X14072563Y-10688460D01*
X14072563Y-10688460D02*
X14063039Y-10678936D01*
X14063039Y-10678936D02*
X14053515Y-10659889D01*
X14053515Y-10659889D02*
X14053515Y-10602746D01*
X14053515Y-10602746D02*
X14063039Y-10583698D01*
X14063039Y-10583698D02*
X14072563Y-10574174D01*
X14072563Y-10574174D02*
X14091610Y-10564650D01*
X14091610Y-10564650D02*
X14120182Y-10564650D01*
X14120182Y-10564650D02*
X14139230Y-10574174D01*
X14139230Y-10574174D02*
X14148753Y-10583698D01*
X14148753Y-10583698D02*
X14158277Y-10602746D01*
X14158277Y-10602746D02*
X14158277Y-10659889D01*
X14158277Y-10659889D02*
X14148753Y-10678936D01*
X14148753Y-10678936D02*
X14139230Y-10688460D01*
X14139230Y-10688460D02*
X14120182Y-10697984D01*
X14120182Y-10697984D02*
X14091610Y-10697984D01*
X14272563Y-10697984D02*
X14253515Y-10688460D01*
X14253515Y-10688460D02*
X14243991Y-10669412D01*
X14243991Y-10669412D02*
X14243991Y-10497984D01*
X14424944Y-10688460D02*
X14405896Y-10697984D01*
X14405896Y-10697984D02*
X14367801Y-10697984D01*
X14367801Y-10697984D02*
X14348753Y-10688460D01*
X14348753Y-10688460D02*
X14339230Y-10669412D01*
X14339230Y-10669412D02*
X14339230Y-10593222D01*
X14339230Y-10593222D02*
X14348753Y-10574174D01*
X14348753Y-10574174D02*
X14367801Y-10564650D01*
X14367801Y-10564650D02*
X14405896Y-10564650D01*
X14405896Y-10564650D02*
X14424944Y-10574174D01*
X14424944Y-10574174D02*
X14434468Y-10593222D01*
X14434468Y-10593222D02*
X14434468Y-10612270D01*
X14434468Y-10612270D02*
X14339230Y-10631317D01*
X14510658Y-10688460D02*
X14529706Y-10697984D01*
X14529706Y-10697984D02*
X14567801Y-10697984D01*
X14567801Y-10697984D02*
X14586849Y-10688460D01*
X14586849Y-10688460D02*
X14596372Y-10669412D01*
X14596372Y-10669412D02*
X14596372Y-10659889D01*
X14596372Y-10659889D02*
X14586849Y-10640841D01*
X14586849Y-10640841D02*
X14567801Y-10631317D01*
X14567801Y-10631317D02*
X14539230Y-10631317D01*
X14539230Y-10631317D02*
X14520182Y-10621793D01*
X14520182Y-10621793D02*
X14510658Y-10602746D01*
X14510658Y-10602746D02*
X14510658Y-10593222D01*
X14510658Y-10593222D02*
X14520182Y-10574174D01*
X14520182Y-10574174D02*
X14539230Y-10564650D01*
X14539230Y-10564650D02*
X14567801Y-10564650D01*
X14567801Y-10564650D02*
X14586849Y-10574174D01*
X14663039Y-10774174D02*
X14672563Y-10764650D01*
X14672563Y-10764650D02*
X14691611Y-10736079D01*
X14691611Y-10736079D02*
X14701134Y-10717031D01*
X14701134Y-10717031D02*
X14710658Y-10688460D01*
X14710658Y-10688460D02*
X14720182Y-10640841D01*
X14720182Y-10640841D02*
X14720182Y-10602746D01*
X14720182Y-10602746D02*
X14710658Y-10555127D01*
X14710658Y-10555127D02*
X14701134Y-10526555D01*
X14701134Y-10526555D02*
X14691611Y-10507508D01*
X14691611Y-10507508D02*
X14672563Y-10478936D01*
X14672563Y-10478936D02*
X14663039Y-10469412D01*
M02*
