%TF.GenerationSoftware,KiCad,Pcbnew,8.0.0*%
%TF.CreationDate,2024-03-12T01:26:02-04:00*%
%TF.ProjectId,mediaKeeb_V1,6d656469-614b-4656-9562-5f56312e6b69,rev?*%
%TF.SameCoordinates,Original*%
%TF.FileFunction,Copper,L1,Top*%
%TF.FilePolarity,Positive*%
%FSLAX46Y46*%
G04 Gerber Fmt 4.6, Leading zero omitted, Abs format (unit mm)*
G04 Created by KiCad (PCBNEW 8.0.0) date 2024-03-12 01:26:02*
%MOMM*%
%LPD*%
G01*
G04 APERTURE LIST*
%TA.AperFunction,ComponentPad*%
%ADD10C,2.500000*%
%TD*%
%TA.AperFunction,ComponentPad*%
%ADD11R,1.700000X1.700000*%
%TD*%
%TA.AperFunction,ComponentPad*%
%ADD12O,1.700000X1.700000*%
%TD*%
%TA.AperFunction,Conductor*%
%ADD13C,0.200000*%
%TD*%
G04 APERTURE END LIST*
D10*
%TO.P,SW6,1,1*%
%TO.N,Column_3*%
X153641250Y-78890000D03*
%TO.P,SW6,2,2*%
%TO.N,Net-(D6-A)*%
X159991250Y-76350000D03*
%TD*%
%TO.P,SW5,2,2*%
%TO.N,Net-(D5-A)*%
X140991250Y-76350000D03*
%TO.P,SW5,1,1*%
%TO.N,Column_2*%
X134641250Y-78890000D03*
%TD*%
%TO.P,SW4,2,2*%
%TO.N,Net-(D4-A)*%
X121991250Y-76350000D03*
%TO.P,SW4,1,1*%
%TO.N,Column_1*%
X115641250Y-78890000D03*
%TD*%
%TO.P,SW3,1,1*%
%TO.N,Column_3*%
X153641250Y-59890000D03*
%TO.P,SW3,2,2*%
%TO.N,Net-(D3-A)*%
X159991250Y-57350000D03*
%TD*%
%TO.P,SW2,2,2*%
%TO.N,Net-(D2-A)*%
X140991250Y-57350000D03*
%TO.P,SW2,1,1*%
%TO.N,Column_2*%
X134641250Y-59890000D03*
%TD*%
%TO.P,SW1,2,2*%
%TO.N,Net-(D1-A)*%
X121981250Y-57350000D03*
%TO.P,SW1,1,1*%
%TO.N,Column_1*%
X115631250Y-59890000D03*
%TD*%
D11*
%TO.P,J1,1,Pin_1*%
%TO.N,Row_2*%
X104081250Y-80520000D03*
D12*
%TO.P,J1,2,Pin_2*%
%TO.N,Row_1*%
X104081250Y-77980000D03*
%TO.P,J1,3,Pin_3*%
%TO.N,Column_1*%
X104081250Y-75440000D03*
%TO.P,J1,4,Pin_4*%
%TO.N,Column_2*%
X104081250Y-72900000D03*
%TO.P,J1,5,Pin_5*%
%TO.N,Column_3*%
X104081250Y-70360000D03*
%TD*%
D13*
%TO.N,Column_1*%
X106031250Y-67100000D02*
X113241250Y-59890000D01*
X113241250Y-59890000D02*
X115631250Y-59890000D01*
X106031250Y-73500000D02*
X106031250Y-67100000D01*
X104091250Y-75440000D02*
X106031250Y-73500000D01*
X104081250Y-75440000D02*
X104091250Y-75440000D01*
%TO.N,Column_3*%
X104081250Y-70360000D02*
X104081250Y-67050000D01*
X104081250Y-67050000D02*
X116781250Y-54350000D01*
X116781250Y-54350000D02*
X148101250Y-54350000D01*
X148101250Y-54350000D02*
X153641250Y-59890000D01*
%TO.N,Column_2*%
X129551250Y-54800000D02*
X134641250Y-59890000D01*
X105231250Y-66850000D02*
X117281250Y-54800000D01*
X117281250Y-54800000D02*
X129551250Y-54800000D01*
X104481250Y-72900000D02*
X105231250Y-72150000D01*
X104081250Y-72900000D02*
X104481250Y-72900000D01*
X105231250Y-72150000D02*
X105231250Y-66850000D01*
%TO.N,Column_3*%
X153641250Y-59890000D02*
X153641250Y-78890000D01*
%TO.N,Column_2*%
X134641250Y-59890000D02*
X134641250Y-78890000D01*
%TO.N,Column_1*%
X115641250Y-59890000D02*
X115641250Y-78890000D01*
%TD*%
M02*
