%TF.GenerationSoftware,KiCad,Pcbnew,8.0.0*%
%TF.CreationDate,2024-03-12T01:26:03-04:00*%
%TF.ProjectId,mediaKeeb_V1,6d656469-614b-4656-9562-5f56312e6b69,rev?*%
%TF.SameCoordinates,Original*%
%TF.FileFunction,Soldermask,Bot*%
%TF.FilePolarity,Negative*%
%FSLAX46Y46*%
G04 Gerber Fmt 4.6, Leading zero omitted, Abs format (unit mm)*
G04 Created by KiCad (PCBNEW 8.0.0) date 2024-03-12 01:26:03*
%MOMM*%
%LPD*%
G01*
G04 APERTURE LIST*
G04 Aperture macros list*
%AMRoundRect*
0 Rectangle with rounded corners*
0 $1 Rounding radius*
0 $2 $3 $4 $5 $6 $7 $8 $9 X,Y pos of 4 corners*
0 Add a 4 corners polygon primitive as box body*
4,1,4,$2,$3,$4,$5,$6,$7,$8,$9,$2,$3,0*
0 Add four circle primitives for the rounded corners*
1,1,$1+$1,$2,$3*
1,1,$1+$1,$4,$5*
1,1,$1+$1,$6,$7*
1,1,$1+$1,$8,$9*
0 Add four rect primitives between the rounded corners*
20,1,$1+$1,$2,$3,$4,$5,0*
20,1,$1+$1,$4,$5,$6,$7,0*
20,1,$1+$1,$6,$7,$8,$9,0*
20,1,$1+$1,$8,$9,$2,$3,0*%
G04 Aperture macros list end*
%ADD10C,3.200000*%
%ADD11RoundRect,0.225000X0.375000X-0.225000X0.375000X0.225000X-0.375000X0.225000X-0.375000X-0.225000X0*%
%ADD12C,2.500000*%
%ADD13C,4.000000*%
%ADD14C,1.750000*%
%ADD15R,1.700000X1.700000*%
%ADD16O,1.700000X1.700000*%
G04 APERTURE END LIST*
D10*
%TO.C,H1*%
X168000000Y-51000000D03*
%TD*%
%TO.C,H4*%
X168000000Y-93000000D03*
%TD*%
%TO.C,H3*%
X101000000Y-93000000D03*
%TD*%
%TO.C,H2*%
X101000000Y-51000000D03*
%TD*%
D11*
%TO.C,D4*%
X127581250Y-90000000D03*
X127581250Y-86700000D03*
%TD*%
D12*
%TO.C,SW6*%
X153641250Y-78890000D03*
X159991250Y-76350000D03*
D13*
X157451250Y-81430000D03*
D14*
X152371250Y-81430000D03*
X162531250Y-81430000D03*
%TD*%
%TO.C,SW5*%
X143531250Y-81430000D03*
X133371250Y-81430000D03*
D13*
X138451250Y-81430000D03*
D12*
X140991250Y-76350000D03*
X134641250Y-78890000D03*
%TD*%
D14*
%TO.C,SW4*%
X124531250Y-81430000D03*
X114371250Y-81430000D03*
D13*
X119451250Y-81430000D03*
D12*
X121991250Y-76350000D03*
X115641250Y-78890000D03*
%TD*%
%TO.C,SW3*%
X153641250Y-59890000D03*
X159991250Y-57350000D03*
D13*
X157451250Y-62430000D03*
D14*
X152371250Y-62430000D03*
X162531250Y-62430000D03*
%TD*%
%TO.C,SW2*%
X143531250Y-62430000D03*
X133371250Y-62430000D03*
D13*
X138451250Y-62430000D03*
D12*
X140991250Y-57350000D03*
X134641250Y-59890000D03*
%TD*%
D14*
%TO.C,SW1*%
X124521250Y-62430000D03*
X114361250Y-62430000D03*
D13*
X119441250Y-62430000D03*
D12*
X121981250Y-57350000D03*
X115631250Y-59890000D03*
%TD*%
D15*
%TO.C,J1*%
X104081250Y-80520000D03*
D16*
X104081250Y-77980000D03*
X104081250Y-75440000D03*
X104081250Y-72900000D03*
X104081250Y-70360000D03*
%TD*%
D11*
%TO.C,D6*%
X165508750Y-90000000D03*
X165508750Y-86700000D03*
%TD*%
%TO.C,D3*%
X165556250Y-71000000D03*
X165556250Y-67700000D03*
%TD*%
%TO.C,D5*%
X146531250Y-90000000D03*
X146531250Y-86700000D03*
%TD*%
%TO.C,D2*%
X146531250Y-67700000D03*
X146531250Y-71000000D03*
%TD*%
%TO.C,D1*%
X127468750Y-71000000D03*
X127468750Y-67700000D03*
%TD*%
M02*
