%TF.GenerationSoftware,KiCad,Pcbnew,8.0.0*%
%TF.CreationDate,2024-03-12T01:26:00-04:00*%
%TF.ProjectId,mediaKeeb_V1,6d656469-614b-4656-9562-5f56312e6b69,rev?*%
%TF.SameCoordinates,Original*%
%TF.FileFunction,Drillmap*%
%TF.FilePolarity,Positive*%
%FSLAX45Y45*%
G04 Gerber Fmt 4.5, Leading zero omitted, Abs format (unit mm)*
G04 Created by KiCad (PCBNEW 8.0.0) date 2024-03-12 01:26:00*
%MOMM*%
%LPD*%
G01*
G04 APERTURE LIST*
%ADD10C,0.050000*%
%ADD11C,0.200000*%
%ADD12C,0.175000*%
%ADD13C,0.320000*%
%ADD14C,0.400000*%
G04 APERTURE END LIST*
D10*
X9700000Y-5000000D02*
X9700000Y-9400000D01*
X17200000Y-5000000D02*
X17200000Y-9400000D01*
X10000000Y-9700000D02*
G75*
G02*
X9700000Y-9400000I0J300000D01*
G01*
X17200000Y-9400000D02*
G75*
G02*
X16900000Y-9700000I-300000J0D01*
G01*
X16900000Y-9700000D02*
X10000000Y-9700000D01*
X16900000Y-4700000D02*
G75*
G02*
X17200000Y-5000000I0J-300000D01*
G01*
X10000000Y-4700000D02*
X16900000Y-4700000D01*
X9700000Y-5000000D02*
G75*
G02*
X10000000Y-4700000I300000J0D01*
G01*
D11*
D12*
X11348625Y-6155500D02*
X11523625Y-6330500D01*
X11523625Y-6155500D02*
X11348625Y-6330500D01*
X11349625Y-8055500D02*
X11524625Y-8230500D01*
X11524625Y-8055500D02*
X11349625Y-8230500D01*
X12364625Y-6155500D02*
X12539625Y-6330500D01*
X12539625Y-6155500D02*
X12364625Y-6330500D01*
X12365625Y-8055500D02*
X12540625Y-8230500D01*
X12540625Y-8055500D02*
X12365625Y-8230500D01*
X13249625Y-6155500D02*
X13424625Y-6330500D01*
X13424625Y-6155500D02*
X13249625Y-6330500D01*
X13249625Y-8055500D02*
X13424625Y-8230500D01*
X13424625Y-8055500D02*
X13249625Y-8230500D01*
X14265625Y-6155500D02*
X14440625Y-6330500D01*
X14440625Y-6155500D02*
X14265625Y-6330500D01*
X14265625Y-8055500D02*
X14440625Y-8230500D01*
X14440625Y-8055500D02*
X14265625Y-8230500D01*
X15149625Y-6155500D02*
X15324625Y-6330500D01*
X15324625Y-6155500D02*
X15149625Y-6330500D01*
X15149625Y-8055500D02*
X15324625Y-8230500D01*
X15324625Y-8055500D02*
X15149625Y-8230500D01*
X16165625Y-6155500D02*
X16340625Y-6330500D01*
X16340625Y-6155500D02*
X16165625Y-6330500D01*
X16165625Y-8055500D02*
X16340625Y-8230500D01*
X16340625Y-8055500D02*
X16165625Y-8230500D01*
D13*
X10260000Y-5100000D02*
G75*
G02*
X9940000Y-5100000I-160000J0D01*
G01*
X9940000Y-5100000D02*
G75*
G02*
X10260000Y-5100000I160000J0D01*
G01*
X10260000Y-9300000D02*
G75*
G02*
X9940000Y-9300000I-160000J0D01*
G01*
X9940000Y-9300000D02*
G75*
G02*
X10260000Y-9300000I160000J0D01*
G01*
X16960000Y-5100000D02*
G75*
G02*
X16640000Y-5100000I-160000J0D01*
G01*
X16640000Y-5100000D02*
G75*
G02*
X16960000Y-5100000I160000J0D01*
G01*
X16960000Y-9300000D02*
G75*
G02*
X16640000Y-9300000I-160000J0D01*
G01*
X16640000Y-9300000D02*
G75*
G02*
X16960000Y-9300000I160000J0D01*
G01*
D14*
X11944125Y-6043000D02*
X11944125Y-6443000D01*
X11744125Y-6243000D02*
X12144125Y-6243000D01*
X11945125Y-7943000D02*
X11945125Y-8343000D01*
X11745125Y-8143000D02*
X12145125Y-8143000D01*
X13845125Y-6043000D02*
X13845125Y-6443000D01*
X13645125Y-6243000D02*
X14045125Y-6243000D01*
X13845125Y-7943000D02*
X13845125Y-8343000D01*
X13645125Y-8143000D02*
X14045125Y-8143000D01*
X15745125Y-6043000D02*
X15745125Y-6443000D01*
X15545125Y-6243000D02*
X15945125Y-6243000D01*
X15745125Y-7943000D02*
X15745125Y-8343000D01*
X15545125Y-8143000D02*
X15945125Y-8143000D01*
D11*
X9958277Y-10013984D02*
X9958277Y-9813984D01*
X9958277Y-9813984D02*
X10005896Y-9813984D01*
X10005896Y-9813984D02*
X10034467Y-9823508D01*
X10034467Y-9823508D02*
X10053515Y-9842555D01*
X10053515Y-9842555D02*
X10063039Y-9861603D01*
X10063039Y-9861603D02*
X10072563Y-9899698D01*
X10072563Y-9899698D02*
X10072563Y-9928270D01*
X10072563Y-9928270D02*
X10063039Y-9966365D01*
X10063039Y-9966365D02*
X10053515Y-9985412D01*
X10053515Y-9985412D02*
X10034467Y-10004460D01*
X10034467Y-10004460D02*
X10005896Y-10013984D01*
X10005896Y-10013984D02*
X9958277Y-10013984D01*
X10158277Y-10013984D02*
X10158277Y-9880650D01*
X10158277Y-9918746D02*
X10167801Y-9899698D01*
X10167801Y-9899698D02*
X10177324Y-9890174D01*
X10177324Y-9890174D02*
X10196372Y-9880650D01*
X10196372Y-9880650D02*
X10215420Y-9880650D01*
X10282086Y-10013984D02*
X10282086Y-9880650D01*
X10282086Y-9813984D02*
X10272563Y-9823508D01*
X10272563Y-9823508D02*
X10282086Y-9833031D01*
X10282086Y-9833031D02*
X10291610Y-9823508D01*
X10291610Y-9823508D02*
X10282086Y-9813984D01*
X10282086Y-9813984D02*
X10282086Y-9833031D01*
X10405896Y-10013984D02*
X10386848Y-10004460D01*
X10386848Y-10004460D02*
X10377324Y-9985412D01*
X10377324Y-9985412D02*
X10377324Y-9813984D01*
X10510658Y-10013984D02*
X10491610Y-10004460D01*
X10491610Y-10004460D02*
X10482086Y-9985412D01*
X10482086Y-9985412D02*
X10482086Y-9813984D01*
X10739229Y-10013984D02*
X10739229Y-9813984D01*
X10739229Y-9813984D02*
X10805896Y-9956841D01*
X10805896Y-9956841D02*
X10872563Y-9813984D01*
X10872563Y-9813984D02*
X10872563Y-10013984D01*
X11053515Y-10013984D02*
X11053515Y-9909222D01*
X11053515Y-9909222D02*
X11043991Y-9890174D01*
X11043991Y-9890174D02*
X11024944Y-9880650D01*
X11024944Y-9880650D02*
X10986848Y-9880650D01*
X10986848Y-9880650D02*
X10967801Y-9890174D01*
X11053515Y-10004460D02*
X11034467Y-10013984D01*
X11034467Y-10013984D02*
X10986848Y-10013984D01*
X10986848Y-10013984D02*
X10967801Y-10004460D01*
X10967801Y-10004460D02*
X10958277Y-9985412D01*
X10958277Y-9985412D02*
X10958277Y-9966365D01*
X10958277Y-9966365D02*
X10967801Y-9947317D01*
X10967801Y-9947317D02*
X10986848Y-9937793D01*
X10986848Y-9937793D02*
X11034467Y-9937793D01*
X11034467Y-9937793D02*
X11053515Y-9928270D01*
X11148753Y-9880650D02*
X11148753Y-10080650D01*
X11148753Y-9890174D02*
X11167801Y-9880650D01*
X11167801Y-9880650D02*
X11205896Y-9880650D01*
X11205896Y-9880650D02*
X11224943Y-9890174D01*
X11224943Y-9890174D02*
X11234467Y-9899698D01*
X11234467Y-9899698D02*
X11243991Y-9918746D01*
X11243991Y-9918746D02*
X11243991Y-9975889D01*
X11243991Y-9975889D02*
X11234467Y-9994936D01*
X11234467Y-9994936D02*
X11224943Y-10004460D01*
X11224943Y-10004460D02*
X11205896Y-10013984D01*
X11205896Y-10013984D02*
X11167801Y-10013984D01*
X11167801Y-10013984D02*
X11148753Y-10004460D01*
X11329705Y-9994936D02*
X11339229Y-10004460D01*
X11339229Y-10004460D02*
X11329705Y-10013984D01*
X11329705Y-10013984D02*
X11320182Y-10004460D01*
X11320182Y-10004460D02*
X11329705Y-9994936D01*
X11329705Y-9994936D02*
X11329705Y-10013984D01*
X11329705Y-9890174D02*
X11339229Y-9899698D01*
X11339229Y-9899698D02*
X11329705Y-9909222D01*
X11329705Y-9909222D02*
X11320182Y-9899698D01*
X11320182Y-9899698D02*
X11329705Y-9890174D01*
X11329705Y-9890174D02*
X11329705Y-9909222D01*
D12*
X9522500Y-10255000D02*
X9697500Y-10430000D01*
X9697500Y-10255000D02*
X9522500Y-10430000D01*
D11*
X10063039Y-10433984D02*
X9948753Y-10433984D01*
X10005896Y-10433984D02*
X10005896Y-10233984D01*
X10005896Y-10233984D02*
X9986848Y-10262555D01*
X9986848Y-10262555D02*
X9967801Y-10281603D01*
X9967801Y-10281603D02*
X9948753Y-10291127D01*
X10148753Y-10414936D02*
X10158277Y-10424460D01*
X10158277Y-10424460D02*
X10148753Y-10433984D01*
X10148753Y-10433984D02*
X10139229Y-10424460D01*
X10139229Y-10424460D02*
X10148753Y-10414936D01*
X10148753Y-10414936D02*
X10148753Y-10433984D01*
X10224944Y-10233984D02*
X10358277Y-10233984D01*
X10358277Y-10233984D02*
X10272563Y-10433984D01*
X10529705Y-10233984D02*
X10434467Y-10233984D01*
X10434467Y-10233984D02*
X10424944Y-10329222D01*
X10424944Y-10329222D02*
X10434467Y-10319698D01*
X10434467Y-10319698D02*
X10453515Y-10310174D01*
X10453515Y-10310174D02*
X10501134Y-10310174D01*
X10501134Y-10310174D02*
X10520182Y-10319698D01*
X10520182Y-10319698D02*
X10529705Y-10329222D01*
X10529705Y-10329222D02*
X10539229Y-10348270D01*
X10539229Y-10348270D02*
X10539229Y-10395889D01*
X10539229Y-10395889D02*
X10529705Y-10414936D01*
X10529705Y-10414936D02*
X10520182Y-10424460D01*
X10520182Y-10424460D02*
X10501134Y-10433984D01*
X10501134Y-10433984D02*
X10453515Y-10433984D01*
X10453515Y-10433984D02*
X10434467Y-10424460D01*
X10434467Y-10424460D02*
X10424944Y-10414936D01*
X10663039Y-10233984D02*
X10682086Y-10233984D01*
X10682086Y-10233984D02*
X10701134Y-10243508D01*
X10701134Y-10243508D02*
X10710658Y-10253031D01*
X10710658Y-10253031D02*
X10720182Y-10272079D01*
X10720182Y-10272079D02*
X10729705Y-10310174D01*
X10729705Y-10310174D02*
X10729705Y-10357793D01*
X10729705Y-10357793D02*
X10720182Y-10395889D01*
X10720182Y-10395889D02*
X10710658Y-10414936D01*
X10710658Y-10414936D02*
X10701134Y-10424460D01*
X10701134Y-10424460D02*
X10682086Y-10433984D01*
X10682086Y-10433984D02*
X10663039Y-10433984D01*
X10663039Y-10433984D02*
X10643991Y-10424460D01*
X10643991Y-10424460D02*
X10634467Y-10414936D01*
X10634467Y-10414936D02*
X10624944Y-10395889D01*
X10624944Y-10395889D02*
X10615420Y-10357793D01*
X10615420Y-10357793D02*
X10615420Y-10310174D01*
X10615420Y-10310174D02*
X10624944Y-10272079D01*
X10624944Y-10272079D02*
X10634467Y-10253031D01*
X10634467Y-10253031D02*
X10643991Y-10243508D01*
X10643991Y-10243508D02*
X10663039Y-10233984D01*
X10815420Y-10433984D02*
X10815420Y-10300650D01*
X10815420Y-10319698D02*
X10824944Y-10310174D01*
X10824944Y-10310174D02*
X10843991Y-10300650D01*
X10843991Y-10300650D02*
X10872563Y-10300650D01*
X10872563Y-10300650D02*
X10891610Y-10310174D01*
X10891610Y-10310174D02*
X10901134Y-10329222D01*
X10901134Y-10329222D02*
X10901134Y-10433984D01*
X10901134Y-10329222D02*
X10910658Y-10310174D01*
X10910658Y-10310174D02*
X10929705Y-10300650D01*
X10929705Y-10300650D02*
X10958277Y-10300650D01*
X10958277Y-10300650D02*
X10977325Y-10310174D01*
X10977325Y-10310174D02*
X10986848Y-10329222D01*
X10986848Y-10329222D02*
X10986848Y-10433984D01*
X11082086Y-10433984D02*
X11082086Y-10300650D01*
X11082086Y-10319698D02*
X11091610Y-10310174D01*
X11091610Y-10310174D02*
X11110658Y-10300650D01*
X11110658Y-10300650D02*
X11139229Y-10300650D01*
X11139229Y-10300650D02*
X11158277Y-10310174D01*
X11158277Y-10310174D02*
X11167801Y-10329222D01*
X11167801Y-10329222D02*
X11167801Y-10433984D01*
X11167801Y-10329222D02*
X11177325Y-10310174D01*
X11177325Y-10310174D02*
X11196372Y-10300650D01*
X11196372Y-10300650D02*
X11224943Y-10300650D01*
X11224943Y-10300650D02*
X11243991Y-10310174D01*
X11243991Y-10310174D02*
X11253515Y-10329222D01*
X11253515Y-10329222D02*
X11253515Y-10433984D01*
X11643991Y-10224460D02*
X11472563Y-10481603D01*
X11901134Y-10233984D02*
X11920182Y-10233984D01*
X11920182Y-10233984D02*
X11939229Y-10243508D01*
X11939229Y-10243508D02*
X11948753Y-10253031D01*
X11948753Y-10253031D02*
X11958277Y-10272079D01*
X11958277Y-10272079D02*
X11967801Y-10310174D01*
X11967801Y-10310174D02*
X11967801Y-10357793D01*
X11967801Y-10357793D02*
X11958277Y-10395889D01*
X11958277Y-10395889D02*
X11948753Y-10414936D01*
X11948753Y-10414936D02*
X11939229Y-10424460D01*
X11939229Y-10424460D02*
X11920182Y-10433984D01*
X11920182Y-10433984D02*
X11901134Y-10433984D01*
X11901134Y-10433984D02*
X11882086Y-10424460D01*
X11882086Y-10424460D02*
X11872563Y-10414936D01*
X11872563Y-10414936D02*
X11863039Y-10395889D01*
X11863039Y-10395889D02*
X11853515Y-10357793D01*
X11853515Y-10357793D02*
X11853515Y-10310174D01*
X11853515Y-10310174D02*
X11863039Y-10272079D01*
X11863039Y-10272079D02*
X11872563Y-10253031D01*
X11872563Y-10253031D02*
X11882086Y-10243508D01*
X11882086Y-10243508D02*
X11901134Y-10233984D01*
X12053515Y-10414936D02*
X12063039Y-10424460D01*
X12063039Y-10424460D02*
X12053515Y-10433984D01*
X12053515Y-10433984D02*
X12043991Y-10424460D01*
X12043991Y-10424460D02*
X12053515Y-10414936D01*
X12053515Y-10414936D02*
X12053515Y-10433984D01*
X12186848Y-10233984D02*
X12205896Y-10233984D01*
X12205896Y-10233984D02*
X12224944Y-10243508D01*
X12224944Y-10243508D02*
X12234467Y-10253031D01*
X12234467Y-10253031D02*
X12243991Y-10272079D01*
X12243991Y-10272079D02*
X12253515Y-10310174D01*
X12253515Y-10310174D02*
X12253515Y-10357793D01*
X12253515Y-10357793D02*
X12243991Y-10395889D01*
X12243991Y-10395889D02*
X12234467Y-10414936D01*
X12234467Y-10414936D02*
X12224944Y-10424460D01*
X12224944Y-10424460D02*
X12205896Y-10433984D01*
X12205896Y-10433984D02*
X12186848Y-10433984D01*
X12186848Y-10433984D02*
X12167801Y-10424460D01*
X12167801Y-10424460D02*
X12158277Y-10414936D01*
X12158277Y-10414936D02*
X12148753Y-10395889D01*
X12148753Y-10395889D02*
X12139229Y-10357793D01*
X12139229Y-10357793D02*
X12139229Y-10310174D01*
X12139229Y-10310174D02*
X12148753Y-10272079D01*
X12148753Y-10272079D02*
X12158277Y-10253031D01*
X12158277Y-10253031D02*
X12167801Y-10243508D01*
X12167801Y-10243508D02*
X12186848Y-10233984D01*
X12424944Y-10233984D02*
X12386848Y-10233984D01*
X12386848Y-10233984D02*
X12367801Y-10243508D01*
X12367801Y-10243508D02*
X12358277Y-10253031D01*
X12358277Y-10253031D02*
X12339229Y-10281603D01*
X12339229Y-10281603D02*
X12329706Y-10319698D01*
X12329706Y-10319698D02*
X12329706Y-10395889D01*
X12329706Y-10395889D02*
X12339229Y-10414936D01*
X12339229Y-10414936D02*
X12348753Y-10424460D01*
X12348753Y-10424460D02*
X12367801Y-10433984D01*
X12367801Y-10433984D02*
X12405896Y-10433984D01*
X12405896Y-10433984D02*
X12424944Y-10424460D01*
X12424944Y-10424460D02*
X12434467Y-10414936D01*
X12434467Y-10414936D02*
X12443991Y-10395889D01*
X12443991Y-10395889D02*
X12443991Y-10348270D01*
X12443991Y-10348270D02*
X12434467Y-10329222D01*
X12434467Y-10329222D02*
X12424944Y-10319698D01*
X12424944Y-10319698D02*
X12405896Y-10310174D01*
X12405896Y-10310174D02*
X12367801Y-10310174D01*
X12367801Y-10310174D02*
X12348753Y-10319698D01*
X12348753Y-10319698D02*
X12339229Y-10329222D01*
X12339229Y-10329222D02*
X12329706Y-10348270D01*
X12558277Y-10319698D02*
X12539229Y-10310174D01*
X12539229Y-10310174D02*
X12529706Y-10300650D01*
X12529706Y-10300650D02*
X12520182Y-10281603D01*
X12520182Y-10281603D02*
X12520182Y-10272079D01*
X12520182Y-10272079D02*
X12529706Y-10253031D01*
X12529706Y-10253031D02*
X12539229Y-10243508D01*
X12539229Y-10243508D02*
X12558277Y-10233984D01*
X12558277Y-10233984D02*
X12596372Y-10233984D01*
X12596372Y-10233984D02*
X12615420Y-10243508D01*
X12615420Y-10243508D02*
X12624944Y-10253031D01*
X12624944Y-10253031D02*
X12634467Y-10272079D01*
X12634467Y-10272079D02*
X12634467Y-10281603D01*
X12634467Y-10281603D02*
X12624944Y-10300650D01*
X12624944Y-10300650D02*
X12615420Y-10310174D01*
X12615420Y-10310174D02*
X12596372Y-10319698D01*
X12596372Y-10319698D02*
X12558277Y-10319698D01*
X12558277Y-10319698D02*
X12539229Y-10329222D01*
X12539229Y-10329222D02*
X12529706Y-10338746D01*
X12529706Y-10338746D02*
X12520182Y-10357793D01*
X12520182Y-10357793D02*
X12520182Y-10395889D01*
X12520182Y-10395889D02*
X12529706Y-10414936D01*
X12529706Y-10414936D02*
X12539229Y-10424460D01*
X12539229Y-10424460D02*
X12558277Y-10433984D01*
X12558277Y-10433984D02*
X12596372Y-10433984D01*
X12596372Y-10433984D02*
X12615420Y-10424460D01*
X12615420Y-10424460D02*
X12624944Y-10414936D01*
X12624944Y-10414936D02*
X12634467Y-10395889D01*
X12634467Y-10395889D02*
X12634467Y-10357793D01*
X12634467Y-10357793D02*
X12624944Y-10338746D01*
X12624944Y-10338746D02*
X12615420Y-10329222D01*
X12615420Y-10329222D02*
X12596372Y-10319698D01*
X12729706Y-10433984D02*
X12767801Y-10433984D01*
X12767801Y-10433984D02*
X12786848Y-10424460D01*
X12786848Y-10424460D02*
X12796372Y-10414936D01*
X12796372Y-10414936D02*
X12815420Y-10386365D01*
X12815420Y-10386365D02*
X12824944Y-10348270D01*
X12824944Y-10348270D02*
X12824944Y-10272079D01*
X12824944Y-10272079D02*
X12815420Y-10253031D01*
X12815420Y-10253031D02*
X12805896Y-10243508D01*
X12805896Y-10243508D02*
X12786848Y-10233984D01*
X12786848Y-10233984D02*
X12748753Y-10233984D01*
X12748753Y-10233984D02*
X12729706Y-10243508D01*
X12729706Y-10243508D02*
X12720182Y-10253031D01*
X12720182Y-10253031D02*
X12710658Y-10272079D01*
X12710658Y-10272079D02*
X12710658Y-10319698D01*
X12710658Y-10319698D02*
X12720182Y-10338746D01*
X12720182Y-10338746D02*
X12729706Y-10348270D01*
X12729706Y-10348270D02*
X12748753Y-10357793D01*
X12748753Y-10357793D02*
X12786848Y-10357793D01*
X12786848Y-10357793D02*
X12805896Y-10348270D01*
X12805896Y-10348270D02*
X12815420Y-10338746D01*
X12815420Y-10338746D02*
X12824944Y-10319698D01*
X12901134Y-10233984D02*
X12901134Y-10272079D01*
X12977325Y-10233984D02*
X12977325Y-10272079D01*
X13272563Y-10510174D02*
X13263039Y-10500650D01*
X13263039Y-10500650D02*
X13243991Y-10472079D01*
X13243991Y-10472079D02*
X13234468Y-10453031D01*
X13234468Y-10453031D02*
X13224944Y-10424460D01*
X13224944Y-10424460D02*
X13215420Y-10376841D01*
X13215420Y-10376841D02*
X13215420Y-10338746D01*
X13215420Y-10338746D02*
X13224944Y-10291127D01*
X13224944Y-10291127D02*
X13234468Y-10262555D01*
X13234468Y-10262555D02*
X13243991Y-10243508D01*
X13243991Y-10243508D02*
X13263039Y-10214936D01*
X13263039Y-10214936D02*
X13272563Y-10205412D01*
X13453515Y-10433984D02*
X13339229Y-10433984D01*
X13396372Y-10433984D02*
X13396372Y-10233984D01*
X13396372Y-10233984D02*
X13377325Y-10262555D01*
X13377325Y-10262555D02*
X13358277Y-10281603D01*
X13358277Y-10281603D02*
X13339229Y-10291127D01*
X13529706Y-10253031D02*
X13539229Y-10243508D01*
X13539229Y-10243508D02*
X13558277Y-10233984D01*
X13558277Y-10233984D02*
X13605896Y-10233984D01*
X13605896Y-10233984D02*
X13624944Y-10243508D01*
X13624944Y-10243508D02*
X13634468Y-10253031D01*
X13634468Y-10253031D02*
X13643991Y-10272079D01*
X13643991Y-10272079D02*
X13643991Y-10291127D01*
X13643991Y-10291127D02*
X13634468Y-10319698D01*
X13634468Y-10319698D02*
X13520182Y-10433984D01*
X13520182Y-10433984D02*
X13643991Y-10433984D01*
X13882087Y-10433984D02*
X13882087Y-10233984D01*
X13967801Y-10433984D02*
X13967801Y-10329222D01*
X13967801Y-10329222D02*
X13958277Y-10310174D01*
X13958277Y-10310174D02*
X13939230Y-10300650D01*
X13939230Y-10300650D02*
X13910658Y-10300650D01*
X13910658Y-10300650D02*
X13891610Y-10310174D01*
X13891610Y-10310174D02*
X13882087Y-10319698D01*
X14091610Y-10433984D02*
X14072563Y-10424460D01*
X14072563Y-10424460D02*
X14063039Y-10414936D01*
X14063039Y-10414936D02*
X14053515Y-10395889D01*
X14053515Y-10395889D02*
X14053515Y-10338746D01*
X14053515Y-10338746D02*
X14063039Y-10319698D01*
X14063039Y-10319698D02*
X14072563Y-10310174D01*
X14072563Y-10310174D02*
X14091610Y-10300650D01*
X14091610Y-10300650D02*
X14120182Y-10300650D01*
X14120182Y-10300650D02*
X14139230Y-10310174D01*
X14139230Y-10310174D02*
X14148753Y-10319698D01*
X14148753Y-10319698D02*
X14158277Y-10338746D01*
X14158277Y-10338746D02*
X14158277Y-10395889D01*
X14158277Y-10395889D02*
X14148753Y-10414936D01*
X14148753Y-10414936D02*
X14139230Y-10424460D01*
X14139230Y-10424460D02*
X14120182Y-10433984D01*
X14120182Y-10433984D02*
X14091610Y-10433984D01*
X14272563Y-10433984D02*
X14253515Y-10424460D01*
X14253515Y-10424460D02*
X14243991Y-10405412D01*
X14243991Y-10405412D02*
X14243991Y-10233984D01*
X14424944Y-10424460D02*
X14405896Y-10433984D01*
X14405896Y-10433984D02*
X14367801Y-10433984D01*
X14367801Y-10433984D02*
X14348753Y-10424460D01*
X14348753Y-10424460D02*
X14339230Y-10405412D01*
X14339230Y-10405412D02*
X14339230Y-10329222D01*
X14339230Y-10329222D02*
X14348753Y-10310174D01*
X14348753Y-10310174D02*
X14367801Y-10300650D01*
X14367801Y-10300650D02*
X14405896Y-10300650D01*
X14405896Y-10300650D02*
X14424944Y-10310174D01*
X14424944Y-10310174D02*
X14434468Y-10329222D01*
X14434468Y-10329222D02*
X14434468Y-10348270D01*
X14434468Y-10348270D02*
X14339230Y-10367317D01*
X14510658Y-10424460D02*
X14529706Y-10433984D01*
X14529706Y-10433984D02*
X14567801Y-10433984D01*
X14567801Y-10433984D02*
X14586849Y-10424460D01*
X14586849Y-10424460D02*
X14596372Y-10405412D01*
X14596372Y-10405412D02*
X14596372Y-10395889D01*
X14596372Y-10395889D02*
X14586849Y-10376841D01*
X14586849Y-10376841D02*
X14567801Y-10367317D01*
X14567801Y-10367317D02*
X14539230Y-10367317D01*
X14539230Y-10367317D02*
X14520182Y-10357793D01*
X14520182Y-10357793D02*
X14510658Y-10338746D01*
X14510658Y-10338746D02*
X14510658Y-10329222D01*
X14510658Y-10329222D02*
X14520182Y-10310174D01*
X14520182Y-10310174D02*
X14539230Y-10300650D01*
X14539230Y-10300650D02*
X14567801Y-10300650D01*
X14567801Y-10300650D02*
X14586849Y-10310174D01*
X14663039Y-10510174D02*
X14672563Y-10500650D01*
X14672563Y-10500650D02*
X14691611Y-10472079D01*
X14691611Y-10472079D02*
X14701134Y-10453031D01*
X14701134Y-10453031D02*
X14710658Y-10424460D01*
X14710658Y-10424460D02*
X14720182Y-10376841D01*
X14720182Y-10376841D02*
X14720182Y-10338746D01*
X14720182Y-10338746D02*
X14710658Y-10291127D01*
X14710658Y-10291127D02*
X14701134Y-10262555D01*
X14701134Y-10262555D02*
X14691611Y-10243508D01*
X14691611Y-10243508D02*
X14672563Y-10214936D01*
X14672563Y-10214936D02*
X14663039Y-10205412D01*
X15024944Y-10510174D02*
X15015420Y-10500650D01*
X15015420Y-10500650D02*
X14996372Y-10472079D01*
X14996372Y-10472079D02*
X14986849Y-10453031D01*
X14986849Y-10453031D02*
X14977325Y-10424460D01*
X14977325Y-10424460D02*
X14967801Y-10376841D01*
X14967801Y-10376841D02*
X14967801Y-10338746D01*
X14967801Y-10338746D02*
X14977325Y-10291127D01*
X14977325Y-10291127D02*
X14986849Y-10262555D01*
X14986849Y-10262555D02*
X14996372Y-10243508D01*
X14996372Y-10243508D02*
X15015420Y-10214936D01*
X15015420Y-10214936D02*
X15024944Y-10205412D01*
X15101134Y-10300650D02*
X15101134Y-10433984D01*
X15101134Y-10319698D02*
X15110658Y-10310174D01*
X15110658Y-10310174D02*
X15129706Y-10300650D01*
X15129706Y-10300650D02*
X15158277Y-10300650D01*
X15158277Y-10300650D02*
X15177325Y-10310174D01*
X15177325Y-10310174D02*
X15186849Y-10329222D01*
X15186849Y-10329222D02*
X15186849Y-10433984D01*
X15310658Y-10433984D02*
X15291611Y-10424460D01*
X15291611Y-10424460D02*
X15282087Y-10414936D01*
X15282087Y-10414936D02*
X15272563Y-10395889D01*
X15272563Y-10395889D02*
X15272563Y-10338746D01*
X15272563Y-10338746D02*
X15282087Y-10319698D01*
X15282087Y-10319698D02*
X15291611Y-10310174D01*
X15291611Y-10310174D02*
X15310658Y-10300650D01*
X15310658Y-10300650D02*
X15339230Y-10300650D01*
X15339230Y-10300650D02*
X15358277Y-10310174D01*
X15358277Y-10310174D02*
X15367801Y-10319698D01*
X15367801Y-10319698D02*
X15377325Y-10338746D01*
X15377325Y-10338746D02*
X15377325Y-10395889D01*
X15377325Y-10395889D02*
X15367801Y-10414936D01*
X15367801Y-10414936D02*
X15358277Y-10424460D01*
X15358277Y-10424460D02*
X15339230Y-10433984D01*
X15339230Y-10433984D02*
X15310658Y-10433984D01*
X15434468Y-10300650D02*
X15510658Y-10300650D01*
X15463039Y-10233984D02*
X15463039Y-10405412D01*
X15463039Y-10405412D02*
X15472563Y-10424460D01*
X15472563Y-10424460D02*
X15491611Y-10433984D01*
X15491611Y-10433984D02*
X15510658Y-10433984D01*
X15729706Y-10300650D02*
X15729706Y-10500650D01*
X15729706Y-10310174D02*
X15748753Y-10300650D01*
X15748753Y-10300650D02*
X15786849Y-10300650D01*
X15786849Y-10300650D02*
X15805896Y-10310174D01*
X15805896Y-10310174D02*
X15815420Y-10319698D01*
X15815420Y-10319698D02*
X15824944Y-10338746D01*
X15824944Y-10338746D02*
X15824944Y-10395889D01*
X15824944Y-10395889D02*
X15815420Y-10414936D01*
X15815420Y-10414936D02*
X15805896Y-10424460D01*
X15805896Y-10424460D02*
X15786849Y-10433984D01*
X15786849Y-10433984D02*
X15748753Y-10433984D01*
X15748753Y-10433984D02*
X15729706Y-10424460D01*
X15939230Y-10433984D02*
X15920182Y-10424460D01*
X15920182Y-10424460D02*
X15910658Y-10405412D01*
X15910658Y-10405412D02*
X15910658Y-10233984D01*
X16101134Y-10433984D02*
X16101134Y-10329222D01*
X16101134Y-10329222D02*
X16091611Y-10310174D01*
X16091611Y-10310174D02*
X16072563Y-10300650D01*
X16072563Y-10300650D02*
X16034468Y-10300650D01*
X16034468Y-10300650D02*
X16015420Y-10310174D01*
X16101134Y-10424460D02*
X16082087Y-10433984D01*
X16082087Y-10433984D02*
X16034468Y-10433984D01*
X16034468Y-10433984D02*
X16015420Y-10424460D01*
X16015420Y-10424460D02*
X16005896Y-10405412D01*
X16005896Y-10405412D02*
X16005896Y-10386365D01*
X16005896Y-10386365D02*
X16015420Y-10367317D01*
X16015420Y-10367317D02*
X16034468Y-10357793D01*
X16034468Y-10357793D02*
X16082087Y-10357793D01*
X16082087Y-10357793D02*
X16101134Y-10348270D01*
X16167801Y-10300650D02*
X16243992Y-10300650D01*
X16196373Y-10233984D02*
X16196373Y-10405412D01*
X16196373Y-10405412D02*
X16205896Y-10424460D01*
X16205896Y-10424460D02*
X16224944Y-10433984D01*
X16224944Y-10433984D02*
X16243992Y-10433984D01*
X16386849Y-10424460D02*
X16367801Y-10433984D01*
X16367801Y-10433984D02*
X16329706Y-10433984D01*
X16329706Y-10433984D02*
X16310658Y-10424460D01*
X16310658Y-10424460D02*
X16301134Y-10405412D01*
X16301134Y-10405412D02*
X16301134Y-10329222D01*
X16301134Y-10329222D02*
X16310658Y-10310174D01*
X16310658Y-10310174D02*
X16329706Y-10300650D01*
X16329706Y-10300650D02*
X16367801Y-10300650D01*
X16367801Y-10300650D02*
X16386849Y-10310174D01*
X16386849Y-10310174D02*
X16396373Y-10329222D01*
X16396373Y-10329222D02*
X16396373Y-10348270D01*
X16396373Y-10348270D02*
X16301134Y-10367317D01*
X16567801Y-10433984D02*
X16567801Y-10233984D01*
X16567801Y-10424460D02*
X16548754Y-10433984D01*
X16548754Y-10433984D02*
X16510658Y-10433984D01*
X16510658Y-10433984D02*
X16491611Y-10424460D01*
X16491611Y-10424460D02*
X16482087Y-10414936D01*
X16482087Y-10414936D02*
X16472563Y-10395889D01*
X16472563Y-10395889D02*
X16472563Y-10338746D01*
X16472563Y-10338746D02*
X16482087Y-10319698D01*
X16482087Y-10319698D02*
X16491611Y-10310174D01*
X16491611Y-10310174D02*
X16510658Y-10300650D01*
X16510658Y-10300650D02*
X16548754Y-10300650D01*
X16548754Y-10300650D02*
X16567801Y-10310174D01*
X16643992Y-10510174D02*
X16653515Y-10500650D01*
X16653515Y-10500650D02*
X16672563Y-10472079D01*
X16672563Y-10472079D02*
X16682087Y-10453031D01*
X16682087Y-10453031D02*
X16691611Y-10424460D01*
X16691611Y-10424460D02*
X16701134Y-10376841D01*
X16701134Y-10376841D02*
X16701134Y-10338746D01*
X16701134Y-10338746D02*
X16691611Y-10291127D01*
X16691611Y-10291127D02*
X16682087Y-10262555D01*
X16682087Y-10262555D02*
X16672563Y-10243508D01*
X16672563Y-10243508D02*
X16653515Y-10214936D01*
X16653515Y-10214936D02*
X16643992Y-10205412D01*
X9697500Y-10637500D02*
G75*
G02*
X9497500Y-10637500I-100000J0D01*
G01*
X9497500Y-10637500D02*
G75*
G02*
X9697500Y-10637500I100000J0D01*
G01*
X9939229Y-10528984D02*
X10063039Y-10528984D01*
X10063039Y-10528984D02*
X9996372Y-10605174D01*
X9996372Y-10605174D02*
X10024944Y-10605174D01*
X10024944Y-10605174D02*
X10043991Y-10614698D01*
X10043991Y-10614698D02*
X10053515Y-10624222D01*
X10053515Y-10624222D02*
X10063039Y-10643270D01*
X10063039Y-10643270D02*
X10063039Y-10690889D01*
X10063039Y-10690889D02*
X10053515Y-10709936D01*
X10053515Y-10709936D02*
X10043991Y-10719460D01*
X10043991Y-10719460D02*
X10024944Y-10728984D01*
X10024944Y-10728984D02*
X9967801Y-10728984D01*
X9967801Y-10728984D02*
X9948753Y-10719460D01*
X9948753Y-10719460D02*
X9939229Y-10709936D01*
X10148753Y-10709936D02*
X10158277Y-10719460D01*
X10158277Y-10719460D02*
X10148753Y-10728984D01*
X10148753Y-10728984D02*
X10139229Y-10719460D01*
X10139229Y-10719460D02*
X10148753Y-10709936D01*
X10148753Y-10709936D02*
X10148753Y-10728984D01*
X10234467Y-10548031D02*
X10243991Y-10538508D01*
X10243991Y-10538508D02*
X10263039Y-10528984D01*
X10263039Y-10528984D02*
X10310658Y-10528984D01*
X10310658Y-10528984D02*
X10329705Y-10538508D01*
X10329705Y-10538508D02*
X10339229Y-10548031D01*
X10339229Y-10548031D02*
X10348753Y-10567079D01*
X10348753Y-10567079D02*
X10348753Y-10586127D01*
X10348753Y-10586127D02*
X10339229Y-10614698D01*
X10339229Y-10614698D02*
X10224944Y-10728984D01*
X10224944Y-10728984D02*
X10348753Y-10728984D01*
X10472563Y-10528984D02*
X10491610Y-10528984D01*
X10491610Y-10528984D02*
X10510658Y-10538508D01*
X10510658Y-10538508D02*
X10520182Y-10548031D01*
X10520182Y-10548031D02*
X10529705Y-10567079D01*
X10529705Y-10567079D02*
X10539229Y-10605174D01*
X10539229Y-10605174D02*
X10539229Y-10652793D01*
X10539229Y-10652793D02*
X10529705Y-10690889D01*
X10529705Y-10690889D02*
X10520182Y-10709936D01*
X10520182Y-10709936D02*
X10510658Y-10719460D01*
X10510658Y-10719460D02*
X10491610Y-10728984D01*
X10491610Y-10728984D02*
X10472563Y-10728984D01*
X10472563Y-10728984D02*
X10453515Y-10719460D01*
X10453515Y-10719460D02*
X10443991Y-10709936D01*
X10443991Y-10709936D02*
X10434467Y-10690889D01*
X10434467Y-10690889D02*
X10424944Y-10652793D01*
X10424944Y-10652793D02*
X10424944Y-10605174D01*
X10424944Y-10605174D02*
X10434467Y-10567079D01*
X10434467Y-10567079D02*
X10443991Y-10548031D01*
X10443991Y-10548031D02*
X10453515Y-10538508D01*
X10453515Y-10538508D02*
X10472563Y-10528984D01*
X10663039Y-10528984D02*
X10682086Y-10528984D01*
X10682086Y-10528984D02*
X10701134Y-10538508D01*
X10701134Y-10538508D02*
X10710658Y-10548031D01*
X10710658Y-10548031D02*
X10720182Y-10567079D01*
X10720182Y-10567079D02*
X10729705Y-10605174D01*
X10729705Y-10605174D02*
X10729705Y-10652793D01*
X10729705Y-10652793D02*
X10720182Y-10690889D01*
X10720182Y-10690889D02*
X10710658Y-10709936D01*
X10710658Y-10709936D02*
X10701134Y-10719460D01*
X10701134Y-10719460D02*
X10682086Y-10728984D01*
X10682086Y-10728984D02*
X10663039Y-10728984D01*
X10663039Y-10728984D02*
X10643991Y-10719460D01*
X10643991Y-10719460D02*
X10634467Y-10709936D01*
X10634467Y-10709936D02*
X10624944Y-10690889D01*
X10624944Y-10690889D02*
X10615420Y-10652793D01*
X10615420Y-10652793D02*
X10615420Y-10605174D01*
X10615420Y-10605174D02*
X10624944Y-10567079D01*
X10624944Y-10567079D02*
X10634467Y-10548031D01*
X10634467Y-10548031D02*
X10643991Y-10538508D01*
X10643991Y-10538508D02*
X10663039Y-10528984D01*
X10815420Y-10728984D02*
X10815420Y-10595650D01*
X10815420Y-10614698D02*
X10824944Y-10605174D01*
X10824944Y-10605174D02*
X10843991Y-10595650D01*
X10843991Y-10595650D02*
X10872563Y-10595650D01*
X10872563Y-10595650D02*
X10891610Y-10605174D01*
X10891610Y-10605174D02*
X10901134Y-10624222D01*
X10901134Y-10624222D02*
X10901134Y-10728984D01*
X10901134Y-10624222D02*
X10910658Y-10605174D01*
X10910658Y-10605174D02*
X10929705Y-10595650D01*
X10929705Y-10595650D02*
X10958277Y-10595650D01*
X10958277Y-10595650D02*
X10977325Y-10605174D01*
X10977325Y-10605174D02*
X10986848Y-10624222D01*
X10986848Y-10624222D02*
X10986848Y-10728984D01*
X11082086Y-10728984D02*
X11082086Y-10595650D01*
X11082086Y-10614698D02*
X11091610Y-10605174D01*
X11091610Y-10605174D02*
X11110658Y-10595650D01*
X11110658Y-10595650D02*
X11139229Y-10595650D01*
X11139229Y-10595650D02*
X11158277Y-10605174D01*
X11158277Y-10605174D02*
X11167801Y-10624222D01*
X11167801Y-10624222D02*
X11167801Y-10728984D01*
X11167801Y-10624222D02*
X11177325Y-10605174D01*
X11177325Y-10605174D02*
X11196372Y-10595650D01*
X11196372Y-10595650D02*
X11224943Y-10595650D01*
X11224943Y-10595650D02*
X11243991Y-10605174D01*
X11243991Y-10605174D02*
X11253515Y-10624222D01*
X11253515Y-10624222D02*
X11253515Y-10728984D01*
X11643991Y-10519460D02*
X11472563Y-10776603D01*
X11901134Y-10528984D02*
X11920182Y-10528984D01*
X11920182Y-10528984D02*
X11939229Y-10538508D01*
X11939229Y-10538508D02*
X11948753Y-10548031D01*
X11948753Y-10548031D02*
X11958277Y-10567079D01*
X11958277Y-10567079D02*
X11967801Y-10605174D01*
X11967801Y-10605174D02*
X11967801Y-10652793D01*
X11967801Y-10652793D02*
X11958277Y-10690889D01*
X11958277Y-10690889D02*
X11948753Y-10709936D01*
X11948753Y-10709936D02*
X11939229Y-10719460D01*
X11939229Y-10719460D02*
X11920182Y-10728984D01*
X11920182Y-10728984D02*
X11901134Y-10728984D01*
X11901134Y-10728984D02*
X11882086Y-10719460D01*
X11882086Y-10719460D02*
X11872563Y-10709936D01*
X11872563Y-10709936D02*
X11863039Y-10690889D01*
X11863039Y-10690889D02*
X11853515Y-10652793D01*
X11853515Y-10652793D02*
X11853515Y-10605174D01*
X11853515Y-10605174D02*
X11863039Y-10567079D01*
X11863039Y-10567079D02*
X11872563Y-10548031D01*
X11872563Y-10548031D02*
X11882086Y-10538508D01*
X11882086Y-10538508D02*
X11901134Y-10528984D01*
X12053515Y-10709936D02*
X12063039Y-10719460D01*
X12063039Y-10719460D02*
X12053515Y-10728984D01*
X12053515Y-10728984D02*
X12043991Y-10719460D01*
X12043991Y-10719460D02*
X12053515Y-10709936D01*
X12053515Y-10709936D02*
X12053515Y-10728984D01*
X12253515Y-10728984D02*
X12139229Y-10728984D01*
X12196372Y-10728984D02*
X12196372Y-10528984D01*
X12196372Y-10528984D02*
X12177325Y-10557555D01*
X12177325Y-10557555D02*
X12158277Y-10576603D01*
X12158277Y-10576603D02*
X12139229Y-10586127D01*
X12329706Y-10548031D02*
X12339229Y-10538508D01*
X12339229Y-10538508D02*
X12358277Y-10528984D01*
X12358277Y-10528984D02*
X12405896Y-10528984D01*
X12405896Y-10528984D02*
X12424944Y-10538508D01*
X12424944Y-10538508D02*
X12434467Y-10548031D01*
X12434467Y-10548031D02*
X12443991Y-10567079D01*
X12443991Y-10567079D02*
X12443991Y-10586127D01*
X12443991Y-10586127D02*
X12434467Y-10614698D01*
X12434467Y-10614698D02*
X12320182Y-10728984D01*
X12320182Y-10728984D02*
X12443991Y-10728984D01*
X12615420Y-10528984D02*
X12577325Y-10528984D01*
X12577325Y-10528984D02*
X12558277Y-10538508D01*
X12558277Y-10538508D02*
X12548753Y-10548031D01*
X12548753Y-10548031D02*
X12529706Y-10576603D01*
X12529706Y-10576603D02*
X12520182Y-10614698D01*
X12520182Y-10614698D02*
X12520182Y-10690889D01*
X12520182Y-10690889D02*
X12529706Y-10709936D01*
X12529706Y-10709936D02*
X12539229Y-10719460D01*
X12539229Y-10719460D02*
X12558277Y-10728984D01*
X12558277Y-10728984D02*
X12596372Y-10728984D01*
X12596372Y-10728984D02*
X12615420Y-10719460D01*
X12615420Y-10719460D02*
X12624944Y-10709936D01*
X12624944Y-10709936D02*
X12634467Y-10690889D01*
X12634467Y-10690889D02*
X12634467Y-10643270D01*
X12634467Y-10643270D02*
X12624944Y-10624222D01*
X12624944Y-10624222D02*
X12615420Y-10614698D01*
X12615420Y-10614698D02*
X12596372Y-10605174D01*
X12596372Y-10605174D02*
X12558277Y-10605174D01*
X12558277Y-10605174D02*
X12539229Y-10614698D01*
X12539229Y-10614698D02*
X12529706Y-10624222D01*
X12529706Y-10624222D02*
X12520182Y-10643270D01*
X12758277Y-10528984D02*
X12777325Y-10528984D01*
X12777325Y-10528984D02*
X12796372Y-10538508D01*
X12796372Y-10538508D02*
X12805896Y-10548031D01*
X12805896Y-10548031D02*
X12815420Y-10567079D01*
X12815420Y-10567079D02*
X12824944Y-10605174D01*
X12824944Y-10605174D02*
X12824944Y-10652793D01*
X12824944Y-10652793D02*
X12815420Y-10690889D01*
X12815420Y-10690889D02*
X12805896Y-10709936D01*
X12805896Y-10709936D02*
X12796372Y-10719460D01*
X12796372Y-10719460D02*
X12777325Y-10728984D01*
X12777325Y-10728984D02*
X12758277Y-10728984D01*
X12758277Y-10728984D02*
X12739229Y-10719460D01*
X12739229Y-10719460D02*
X12729706Y-10709936D01*
X12729706Y-10709936D02*
X12720182Y-10690889D01*
X12720182Y-10690889D02*
X12710658Y-10652793D01*
X12710658Y-10652793D02*
X12710658Y-10605174D01*
X12710658Y-10605174D02*
X12720182Y-10567079D01*
X12720182Y-10567079D02*
X12729706Y-10548031D01*
X12729706Y-10548031D02*
X12739229Y-10538508D01*
X12739229Y-10538508D02*
X12758277Y-10528984D01*
X12901134Y-10528984D02*
X12901134Y-10567079D01*
X12977325Y-10528984D02*
X12977325Y-10567079D01*
X13272563Y-10805174D02*
X13263039Y-10795650D01*
X13263039Y-10795650D02*
X13243991Y-10767079D01*
X13243991Y-10767079D02*
X13234468Y-10748031D01*
X13234468Y-10748031D02*
X13224944Y-10719460D01*
X13224944Y-10719460D02*
X13215420Y-10671841D01*
X13215420Y-10671841D02*
X13215420Y-10633746D01*
X13215420Y-10633746D02*
X13224944Y-10586127D01*
X13224944Y-10586127D02*
X13234468Y-10557555D01*
X13234468Y-10557555D02*
X13243991Y-10538508D01*
X13243991Y-10538508D02*
X13263039Y-10509936D01*
X13263039Y-10509936D02*
X13272563Y-10500412D01*
X13434468Y-10595650D02*
X13434468Y-10728984D01*
X13386848Y-10519460D02*
X13339229Y-10662317D01*
X13339229Y-10662317D02*
X13463039Y-10662317D01*
X13691610Y-10728984D02*
X13691610Y-10528984D01*
X13777325Y-10728984D02*
X13777325Y-10624222D01*
X13777325Y-10624222D02*
X13767801Y-10605174D01*
X13767801Y-10605174D02*
X13748753Y-10595650D01*
X13748753Y-10595650D02*
X13720182Y-10595650D01*
X13720182Y-10595650D02*
X13701134Y-10605174D01*
X13701134Y-10605174D02*
X13691610Y-10614698D01*
X13901134Y-10728984D02*
X13882087Y-10719460D01*
X13882087Y-10719460D02*
X13872563Y-10709936D01*
X13872563Y-10709936D02*
X13863039Y-10690889D01*
X13863039Y-10690889D02*
X13863039Y-10633746D01*
X13863039Y-10633746D02*
X13872563Y-10614698D01*
X13872563Y-10614698D02*
X13882087Y-10605174D01*
X13882087Y-10605174D02*
X13901134Y-10595650D01*
X13901134Y-10595650D02*
X13929706Y-10595650D01*
X13929706Y-10595650D02*
X13948753Y-10605174D01*
X13948753Y-10605174D02*
X13958277Y-10614698D01*
X13958277Y-10614698D02*
X13967801Y-10633746D01*
X13967801Y-10633746D02*
X13967801Y-10690889D01*
X13967801Y-10690889D02*
X13958277Y-10709936D01*
X13958277Y-10709936D02*
X13948753Y-10719460D01*
X13948753Y-10719460D02*
X13929706Y-10728984D01*
X13929706Y-10728984D02*
X13901134Y-10728984D01*
X14082087Y-10728984D02*
X14063039Y-10719460D01*
X14063039Y-10719460D02*
X14053515Y-10700412D01*
X14053515Y-10700412D02*
X14053515Y-10528984D01*
X14234468Y-10719460D02*
X14215420Y-10728984D01*
X14215420Y-10728984D02*
X14177325Y-10728984D01*
X14177325Y-10728984D02*
X14158277Y-10719460D01*
X14158277Y-10719460D02*
X14148753Y-10700412D01*
X14148753Y-10700412D02*
X14148753Y-10624222D01*
X14148753Y-10624222D02*
X14158277Y-10605174D01*
X14158277Y-10605174D02*
X14177325Y-10595650D01*
X14177325Y-10595650D02*
X14215420Y-10595650D01*
X14215420Y-10595650D02*
X14234468Y-10605174D01*
X14234468Y-10605174D02*
X14243991Y-10624222D01*
X14243991Y-10624222D02*
X14243991Y-10643270D01*
X14243991Y-10643270D02*
X14148753Y-10662317D01*
X14320182Y-10719460D02*
X14339230Y-10728984D01*
X14339230Y-10728984D02*
X14377325Y-10728984D01*
X14377325Y-10728984D02*
X14396372Y-10719460D01*
X14396372Y-10719460D02*
X14405896Y-10700412D01*
X14405896Y-10700412D02*
X14405896Y-10690889D01*
X14405896Y-10690889D02*
X14396372Y-10671841D01*
X14396372Y-10671841D02*
X14377325Y-10662317D01*
X14377325Y-10662317D02*
X14348753Y-10662317D01*
X14348753Y-10662317D02*
X14329706Y-10652793D01*
X14329706Y-10652793D02*
X14320182Y-10633746D01*
X14320182Y-10633746D02*
X14320182Y-10624222D01*
X14320182Y-10624222D02*
X14329706Y-10605174D01*
X14329706Y-10605174D02*
X14348753Y-10595650D01*
X14348753Y-10595650D02*
X14377325Y-10595650D01*
X14377325Y-10595650D02*
X14396372Y-10605174D01*
X14472563Y-10805174D02*
X14482087Y-10795650D01*
X14482087Y-10795650D02*
X14501134Y-10767079D01*
X14501134Y-10767079D02*
X14510658Y-10748031D01*
X14510658Y-10748031D02*
X14520182Y-10719460D01*
X14520182Y-10719460D02*
X14529706Y-10671841D01*
X14529706Y-10671841D02*
X14529706Y-10633746D01*
X14529706Y-10633746D02*
X14520182Y-10586127D01*
X14520182Y-10586127D02*
X14510658Y-10557555D01*
X14510658Y-10557555D02*
X14501134Y-10538508D01*
X14501134Y-10538508D02*
X14482087Y-10509936D01*
X14482087Y-10509936D02*
X14472563Y-10500412D01*
X14834468Y-10805174D02*
X14824944Y-10795650D01*
X14824944Y-10795650D02*
X14805896Y-10767079D01*
X14805896Y-10767079D02*
X14796372Y-10748031D01*
X14796372Y-10748031D02*
X14786849Y-10719460D01*
X14786849Y-10719460D02*
X14777325Y-10671841D01*
X14777325Y-10671841D02*
X14777325Y-10633746D01*
X14777325Y-10633746D02*
X14786849Y-10586127D01*
X14786849Y-10586127D02*
X14796372Y-10557555D01*
X14796372Y-10557555D02*
X14805896Y-10538508D01*
X14805896Y-10538508D02*
X14824944Y-10509936D01*
X14824944Y-10509936D02*
X14834468Y-10500412D01*
X14910658Y-10595650D02*
X14910658Y-10728984D01*
X14910658Y-10614698D02*
X14920182Y-10605174D01*
X14920182Y-10605174D02*
X14939230Y-10595650D01*
X14939230Y-10595650D02*
X14967801Y-10595650D01*
X14967801Y-10595650D02*
X14986849Y-10605174D01*
X14986849Y-10605174D02*
X14996372Y-10624222D01*
X14996372Y-10624222D02*
X14996372Y-10728984D01*
X15120182Y-10728984D02*
X15101134Y-10719460D01*
X15101134Y-10719460D02*
X15091611Y-10709936D01*
X15091611Y-10709936D02*
X15082087Y-10690889D01*
X15082087Y-10690889D02*
X15082087Y-10633746D01*
X15082087Y-10633746D02*
X15091611Y-10614698D01*
X15091611Y-10614698D02*
X15101134Y-10605174D01*
X15101134Y-10605174D02*
X15120182Y-10595650D01*
X15120182Y-10595650D02*
X15148753Y-10595650D01*
X15148753Y-10595650D02*
X15167801Y-10605174D01*
X15167801Y-10605174D02*
X15177325Y-10614698D01*
X15177325Y-10614698D02*
X15186849Y-10633746D01*
X15186849Y-10633746D02*
X15186849Y-10690889D01*
X15186849Y-10690889D02*
X15177325Y-10709936D01*
X15177325Y-10709936D02*
X15167801Y-10719460D01*
X15167801Y-10719460D02*
X15148753Y-10728984D01*
X15148753Y-10728984D02*
X15120182Y-10728984D01*
X15243992Y-10595650D02*
X15320182Y-10595650D01*
X15272563Y-10528984D02*
X15272563Y-10700412D01*
X15272563Y-10700412D02*
X15282087Y-10719460D01*
X15282087Y-10719460D02*
X15301134Y-10728984D01*
X15301134Y-10728984D02*
X15320182Y-10728984D01*
X15539230Y-10595650D02*
X15539230Y-10795650D01*
X15539230Y-10605174D02*
X15558277Y-10595650D01*
X15558277Y-10595650D02*
X15596373Y-10595650D01*
X15596373Y-10595650D02*
X15615420Y-10605174D01*
X15615420Y-10605174D02*
X15624944Y-10614698D01*
X15624944Y-10614698D02*
X15634468Y-10633746D01*
X15634468Y-10633746D02*
X15634468Y-10690889D01*
X15634468Y-10690889D02*
X15624944Y-10709936D01*
X15624944Y-10709936D02*
X15615420Y-10719460D01*
X15615420Y-10719460D02*
X15596373Y-10728984D01*
X15596373Y-10728984D02*
X15558277Y-10728984D01*
X15558277Y-10728984D02*
X15539230Y-10719460D01*
X15748753Y-10728984D02*
X15729706Y-10719460D01*
X15729706Y-10719460D02*
X15720182Y-10700412D01*
X15720182Y-10700412D02*
X15720182Y-10528984D01*
X15910658Y-10728984D02*
X15910658Y-10624222D01*
X15910658Y-10624222D02*
X15901134Y-10605174D01*
X15901134Y-10605174D02*
X15882087Y-10595650D01*
X15882087Y-10595650D02*
X15843992Y-10595650D01*
X15843992Y-10595650D02*
X15824944Y-10605174D01*
X15910658Y-10719460D02*
X15891611Y-10728984D01*
X15891611Y-10728984D02*
X15843992Y-10728984D01*
X15843992Y-10728984D02*
X15824944Y-10719460D01*
X15824944Y-10719460D02*
X15815420Y-10700412D01*
X15815420Y-10700412D02*
X15815420Y-10681365D01*
X15815420Y-10681365D02*
X15824944Y-10662317D01*
X15824944Y-10662317D02*
X15843992Y-10652793D01*
X15843992Y-10652793D02*
X15891611Y-10652793D01*
X15891611Y-10652793D02*
X15910658Y-10643270D01*
X15977325Y-10595650D02*
X16053515Y-10595650D01*
X16005896Y-10528984D02*
X16005896Y-10700412D01*
X16005896Y-10700412D02*
X16015420Y-10719460D01*
X16015420Y-10719460D02*
X16034468Y-10728984D01*
X16034468Y-10728984D02*
X16053515Y-10728984D01*
X16196373Y-10719460D02*
X16177325Y-10728984D01*
X16177325Y-10728984D02*
X16139230Y-10728984D01*
X16139230Y-10728984D02*
X16120182Y-10719460D01*
X16120182Y-10719460D02*
X16110658Y-10700412D01*
X16110658Y-10700412D02*
X16110658Y-10624222D01*
X16110658Y-10624222D02*
X16120182Y-10605174D01*
X16120182Y-10605174D02*
X16139230Y-10595650D01*
X16139230Y-10595650D02*
X16177325Y-10595650D01*
X16177325Y-10595650D02*
X16196373Y-10605174D01*
X16196373Y-10605174D02*
X16205896Y-10624222D01*
X16205896Y-10624222D02*
X16205896Y-10643270D01*
X16205896Y-10643270D02*
X16110658Y-10662317D01*
X16377325Y-10728984D02*
X16377325Y-10528984D01*
X16377325Y-10719460D02*
X16358277Y-10728984D01*
X16358277Y-10728984D02*
X16320182Y-10728984D01*
X16320182Y-10728984D02*
X16301134Y-10719460D01*
X16301134Y-10719460D02*
X16291611Y-10709936D01*
X16291611Y-10709936D02*
X16282087Y-10690889D01*
X16282087Y-10690889D02*
X16282087Y-10633746D01*
X16282087Y-10633746D02*
X16291611Y-10614698D01*
X16291611Y-10614698D02*
X16301134Y-10605174D01*
X16301134Y-10605174D02*
X16320182Y-10595650D01*
X16320182Y-10595650D02*
X16358277Y-10595650D01*
X16358277Y-10595650D02*
X16377325Y-10605174D01*
X16453515Y-10805174D02*
X16463039Y-10795650D01*
X16463039Y-10795650D02*
X16482087Y-10767079D01*
X16482087Y-10767079D02*
X16491611Y-10748031D01*
X16491611Y-10748031D02*
X16501134Y-10719460D01*
X16501134Y-10719460D02*
X16510658Y-10671841D01*
X16510658Y-10671841D02*
X16510658Y-10633746D01*
X16510658Y-10633746D02*
X16501134Y-10586127D01*
X16501134Y-10586127D02*
X16491611Y-10557555D01*
X16491611Y-10557555D02*
X16482087Y-10538508D01*
X16482087Y-10538508D02*
X16463039Y-10509936D01*
X16463039Y-10509936D02*
X16453515Y-10500412D01*
X9597500Y-10857500D02*
X9597500Y-11057500D01*
X9497500Y-10957500D02*
X9697500Y-10957500D01*
X10043991Y-10915650D02*
X10043991Y-11048984D01*
X9996372Y-10839460D02*
X9948753Y-10982317D01*
X9948753Y-10982317D02*
X10072563Y-10982317D01*
X10148753Y-11029936D02*
X10158277Y-11039460D01*
X10158277Y-11039460D02*
X10148753Y-11048984D01*
X10148753Y-11048984D02*
X10139229Y-11039460D01*
X10139229Y-11039460D02*
X10148753Y-11029936D01*
X10148753Y-11029936D02*
X10148753Y-11048984D01*
X10282086Y-10848984D02*
X10301134Y-10848984D01*
X10301134Y-10848984D02*
X10320182Y-10858508D01*
X10320182Y-10858508D02*
X10329705Y-10868031D01*
X10329705Y-10868031D02*
X10339229Y-10887079D01*
X10339229Y-10887079D02*
X10348753Y-10925174D01*
X10348753Y-10925174D02*
X10348753Y-10972793D01*
X10348753Y-10972793D02*
X10339229Y-11010889D01*
X10339229Y-11010889D02*
X10329705Y-11029936D01*
X10329705Y-11029936D02*
X10320182Y-11039460D01*
X10320182Y-11039460D02*
X10301134Y-11048984D01*
X10301134Y-11048984D02*
X10282086Y-11048984D01*
X10282086Y-11048984D02*
X10263039Y-11039460D01*
X10263039Y-11039460D02*
X10253515Y-11029936D01*
X10253515Y-11029936D02*
X10243991Y-11010889D01*
X10243991Y-11010889D02*
X10234467Y-10972793D01*
X10234467Y-10972793D02*
X10234467Y-10925174D01*
X10234467Y-10925174D02*
X10243991Y-10887079D01*
X10243991Y-10887079D02*
X10253515Y-10868031D01*
X10253515Y-10868031D02*
X10263039Y-10858508D01*
X10263039Y-10858508D02*
X10282086Y-10848984D01*
X10472563Y-10848984D02*
X10491610Y-10848984D01*
X10491610Y-10848984D02*
X10510658Y-10858508D01*
X10510658Y-10858508D02*
X10520182Y-10868031D01*
X10520182Y-10868031D02*
X10529705Y-10887079D01*
X10529705Y-10887079D02*
X10539229Y-10925174D01*
X10539229Y-10925174D02*
X10539229Y-10972793D01*
X10539229Y-10972793D02*
X10529705Y-11010889D01*
X10529705Y-11010889D02*
X10520182Y-11029936D01*
X10520182Y-11029936D02*
X10510658Y-11039460D01*
X10510658Y-11039460D02*
X10491610Y-11048984D01*
X10491610Y-11048984D02*
X10472563Y-11048984D01*
X10472563Y-11048984D02*
X10453515Y-11039460D01*
X10453515Y-11039460D02*
X10443991Y-11029936D01*
X10443991Y-11029936D02*
X10434467Y-11010889D01*
X10434467Y-11010889D02*
X10424944Y-10972793D01*
X10424944Y-10972793D02*
X10424944Y-10925174D01*
X10424944Y-10925174D02*
X10434467Y-10887079D01*
X10434467Y-10887079D02*
X10443991Y-10868031D01*
X10443991Y-10868031D02*
X10453515Y-10858508D01*
X10453515Y-10858508D02*
X10472563Y-10848984D01*
X10663039Y-10848984D02*
X10682086Y-10848984D01*
X10682086Y-10848984D02*
X10701134Y-10858508D01*
X10701134Y-10858508D02*
X10710658Y-10868031D01*
X10710658Y-10868031D02*
X10720182Y-10887079D01*
X10720182Y-10887079D02*
X10729705Y-10925174D01*
X10729705Y-10925174D02*
X10729705Y-10972793D01*
X10729705Y-10972793D02*
X10720182Y-11010889D01*
X10720182Y-11010889D02*
X10710658Y-11029936D01*
X10710658Y-11029936D02*
X10701134Y-11039460D01*
X10701134Y-11039460D02*
X10682086Y-11048984D01*
X10682086Y-11048984D02*
X10663039Y-11048984D01*
X10663039Y-11048984D02*
X10643991Y-11039460D01*
X10643991Y-11039460D02*
X10634467Y-11029936D01*
X10634467Y-11029936D02*
X10624944Y-11010889D01*
X10624944Y-11010889D02*
X10615420Y-10972793D01*
X10615420Y-10972793D02*
X10615420Y-10925174D01*
X10615420Y-10925174D02*
X10624944Y-10887079D01*
X10624944Y-10887079D02*
X10634467Y-10868031D01*
X10634467Y-10868031D02*
X10643991Y-10858508D01*
X10643991Y-10858508D02*
X10663039Y-10848984D01*
X10815420Y-11048984D02*
X10815420Y-10915650D01*
X10815420Y-10934698D02*
X10824944Y-10925174D01*
X10824944Y-10925174D02*
X10843991Y-10915650D01*
X10843991Y-10915650D02*
X10872563Y-10915650D01*
X10872563Y-10915650D02*
X10891610Y-10925174D01*
X10891610Y-10925174D02*
X10901134Y-10944222D01*
X10901134Y-10944222D02*
X10901134Y-11048984D01*
X10901134Y-10944222D02*
X10910658Y-10925174D01*
X10910658Y-10925174D02*
X10929705Y-10915650D01*
X10929705Y-10915650D02*
X10958277Y-10915650D01*
X10958277Y-10915650D02*
X10977325Y-10925174D01*
X10977325Y-10925174D02*
X10986848Y-10944222D01*
X10986848Y-10944222D02*
X10986848Y-11048984D01*
X11082086Y-11048984D02*
X11082086Y-10915650D01*
X11082086Y-10934698D02*
X11091610Y-10925174D01*
X11091610Y-10925174D02*
X11110658Y-10915650D01*
X11110658Y-10915650D02*
X11139229Y-10915650D01*
X11139229Y-10915650D02*
X11158277Y-10925174D01*
X11158277Y-10925174D02*
X11167801Y-10944222D01*
X11167801Y-10944222D02*
X11167801Y-11048984D01*
X11167801Y-10944222D02*
X11177325Y-10925174D01*
X11177325Y-10925174D02*
X11196372Y-10915650D01*
X11196372Y-10915650D02*
X11224943Y-10915650D01*
X11224943Y-10915650D02*
X11243991Y-10925174D01*
X11243991Y-10925174D02*
X11253515Y-10944222D01*
X11253515Y-10944222D02*
X11253515Y-11048984D01*
X11643991Y-10839460D02*
X11472563Y-11096603D01*
X11901134Y-10848984D02*
X11920182Y-10848984D01*
X11920182Y-10848984D02*
X11939229Y-10858508D01*
X11939229Y-10858508D02*
X11948753Y-10868031D01*
X11948753Y-10868031D02*
X11958277Y-10887079D01*
X11958277Y-10887079D02*
X11967801Y-10925174D01*
X11967801Y-10925174D02*
X11967801Y-10972793D01*
X11967801Y-10972793D02*
X11958277Y-11010889D01*
X11958277Y-11010889D02*
X11948753Y-11029936D01*
X11948753Y-11029936D02*
X11939229Y-11039460D01*
X11939229Y-11039460D02*
X11920182Y-11048984D01*
X11920182Y-11048984D02*
X11901134Y-11048984D01*
X11901134Y-11048984D02*
X11882086Y-11039460D01*
X11882086Y-11039460D02*
X11872563Y-11029936D01*
X11872563Y-11029936D02*
X11863039Y-11010889D01*
X11863039Y-11010889D02*
X11853515Y-10972793D01*
X11853515Y-10972793D02*
X11853515Y-10925174D01*
X11853515Y-10925174D02*
X11863039Y-10887079D01*
X11863039Y-10887079D02*
X11872563Y-10868031D01*
X11872563Y-10868031D02*
X11882086Y-10858508D01*
X11882086Y-10858508D02*
X11901134Y-10848984D01*
X12053515Y-11029936D02*
X12063039Y-11039460D01*
X12063039Y-11039460D02*
X12053515Y-11048984D01*
X12053515Y-11048984D02*
X12043991Y-11039460D01*
X12043991Y-11039460D02*
X12053515Y-11029936D01*
X12053515Y-11029936D02*
X12053515Y-11048984D01*
X12253515Y-11048984D02*
X12139229Y-11048984D01*
X12196372Y-11048984D02*
X12196372Y-10848984D01*
X12196372Y-10848984D02*
X12177325Y-10877555D01*
X12177325Y-10877555D02*
X12158277Y-10896603D01*
X12158277Y-10896603D02*
X12139229Y-10906127D01*
X12434467Y-10848984D02*
X12339229Y-10848984D01*
X12339229Y-10848984D02*
X12329706Y-10944222D01*
X12329706Y-10944222D02*
X12339229Y-10934698D01*
X12339229Y-10934698D02*
X12358277Y-10925174D01*
X12358277Y-10925174D02*
X12405896Y-10925174D01*
X12405896Y-10925174D02*
X12424944Y-10934698D01*
X12424944Y-10934698D02*
X12434467Y-10944222D01*
X12434467Y-10944222D02*
X12443991Y-10963270D01*
X12443991Y-10963270D02*
X12443991Y-11010889D01*
X12443991Y-11010889D02*
X12434467Y-11029936D01*
X12434467Y-11029936D02*
X12424944Y-11039460D01*
X12424944Y-11039460D02*
X12405896Y-11048984D01*
X12405896Y-11048984D02*
X12358277Y-11048984D01*
X12358277Y-11048984D02*
X12339229Y-11039460D01*
X12339229Y-11039460D02*
X12329706Y-11029936D01*
X12510658Y-10848984D02*
X12643991Y-10848984D01*
X12643991Y-10848984D02*
X12558277Y-11048984D01*
X12815420Y-10848984D02*
X12720182Y-10848984D01*
X12720182Y-10848984D02*
X12710658Y-10944222D01*
X12710658Y-10944222D02*
X12720182Y-10934698D01*
X12720182Y-10934698D02*
X12739229Y-10925174D01*
X12739229Y-10925174D02*
X12786848Y-10925174D01*
X12786848Y-10925174D02*
X12805896Y-10934698D01*
X12805896Y-10934698D02*
X12815420Y-10944222D01*
X12815420Y-10944222D02*
X12824944Y-10963270D01*
X12824944Y-10963270D02*
X12824944Y-11010889D01*
X12824944Y-11010889D02*
X12815420Y-11029936D01*
X12815420Y-11029936D02*
X12805896Y-11039460D01*
X12805896Y-11039460D02*
X12786848Y-11048984D01*
X12786848Y-11048984D02*
X12739229Y-11048984D01*
X12739229Y-11048984D02*
X12720182Y-11039460D01*
X12720182Y-11039460D02*
X12710658Y-11029936D01*
X12901134Y-10848984D02*
X12901134Y-10887079D01*
X12977325Y-10848984D02*
X12977325Y-10887079D01*
X13272563Y-11125174D02*
X13263039Y-11115650D01*
X13263039Y-11115650D02*
X13243991Y-11087079D01*
X13243991Y-11087079D02*
X13234468Y-11068031D01*
X13234468Y-11068031D02*
X13224944Y-11039460D01*
X13224944Y-11039460D02*
X13215420Y-10991841D01*
X13215420Y-10991841D02*
X13215420Y-10953746D01*
X13215420Y-10953746D02*
X13224944Y-10906127D01*
X13224944Y-10906127D02*
X13234468Y-10877555D01*
X13234468Y-10877555D02*
X13243991Y-10858508D01*
X13243991Y-10858508D02*
X13263039Y-10829936D01*
X13263039Y-10829936D02*
X13272563Y-10820412D01*
X13434468Y-10848984D02*
X13396372Y-10848984D01*
X13396372Y-10848984D02*
X13377325Y-10858508D01*
X13377325Y-10858508D02*
X13367801Y-10868031D01*
X13367801Y-10868031D02*
X13348753Y-10896603D01*
X13348753Y-10896603D02*
X13339229Y-10934698D01*
X13339229Y-10934698D02*
X13339229Y-11010889D01*
X13339229Y-11010889D02*
X13348753Y-11029936D01*
X13348753Y-11029936D02*
X13358277Y-11039460D01*
X13358277Y-11039460D02*
X13377325Y-11048984D01*
X13377325Y-11048984D02*
X13415420Y-11048984D01*
X13415420Y-11048984D02*
X13434468Y-11039460D01*
X13434468Y-11039460D02*
X13443991Y-11029936D01*
X13443991Y-11029936D02*
X13453515Y-11010889D01*
X13453515Y-11010889D02*
X13453515Y-10963270D01*
X13453515Y-10963270D02*
X13443991Y-10944222D01*
X13443991Y-10944222D02*
X13434468Y-10934698D01*
X13434468Y-10934698D02*
X13415420Y-10925174D01*
X13415420Y-10925174D02*
X13377325Y-10925174D01*
X13377325Y-10925174D02*
X13358277Y-10934698D01*
X13358277Y-10934698D02*
X13348753Y-10944222D01*
X13348753Y-10944222D02*
X13339229Y-10963270D01*
X13691610Y-11048984D02*
X13691610Y-10848984D01*
X13777325Y-11048984D02*
X13777325Y-10944222D01*
X13777325Y-10944222D02*
X13767801Y-10925174D01*
X13767801Y-10925174D02*
X13748753Y-10915650D01*
X13748753Y-10915650D02*
X13720182Y-10915650D01*
X13720182Y-10915650D02*
X13701134Y-10925174D01*
X13701134Y-10925174D02*
X13691610Y-10934698D01*
X13901134Y-11048984D02*
X13882087Y-11039460D01*
X13882087Y-11039460D02*
X13872563Y-11029936D01*
X13872563Y-11029936D02*
X13863039Y-11010889D01*
X13863039Y-11010889D02*
X13863039Y-10953746D01*
X13863039Y-10953746D02*
X13872563Y-10934698D01*
X13872563Y-10934698D02*
X13882087Y-10925174D01*
X13882087Y-10925174D02*
X13901134Y-10915650D01*
X13901134Y-10915650D02*
X13929706Y-10915650D01*
X13929706Y-10915650D02*
X13948753Y-10925174D01*
X13948753Y-10925174D02*
X13958277Y-10934698D01*
X13958277Y-10934698D02*
X13967801Y-10953746D01*
X13967801Y-10953746D02*
X13967801Y-11010889D01*
X13967801Y-11010889D02*
X13958277Y-11029936D01*
X13958277Y-11029936D02*
X13948753Y-11039460D01*
X13948753Y-11039460D02*
X13929706Y-11048984D01*
X13929706Y-11048984D02*
X13901134Y-11048984D01*
X14082087Y-11048984D02*
X14063039Y-11039460D01*
X14063039Y-11039460D02*
X14053515Y-11020412D01*
X14053515Y-11020412D02*
X14053515Y-10848984D01*
X14234468Y-11039460D02*
X14215420Y-11048984D01*
X14215420Y-11048984D02*
X14177325Y-11048984D01*
X14177325Y-11048984D02*
X14158277Y-11039460D01*
X14158277Y-11039460D02*
X14148753Y-11020412D01*
X14148753Y-11020412D02*
X14148753Y-10944222D01*
X14148753Y-10944222D02*
X14158277Y-10925174D01*
X14158277Y-10925174D02*
X14177325Y-10915650D01*
X14177325Y-10915650D02*
X14215420Y-10915650D01*
X14215420Y-10915650D02*
X14234468Y-10925174D01*
X14234468Y-10925174D02*
X14243991Y-10944222D01*
X14243991Y-10944222D02*
X14243991Y-10963270D01*
X14243991Y-10963270D02*
X14148753Y-10982317D01*
X14320182Y-11039460D02*
X14339230Y-11048984D01*
X14339230Y-11048984D02*
X14377325Y-11048984D01*
X14377325Y-11048984D02*
X14396372Y-11039460D01*
X14396372Y-11039460D02*
X14405896Y-11020412D01*
X14405896Y-11020412D02*
X14405896Y-11010889D01*
X14405896Y-11010889D02*
X14396372Y-10991841D01*
X14396372Y-10991841D02*
X14377325Y-10982317D01*
X14377325Y-10982317D02*
X14348753Y-10982317D01*
X14348753Y-10982317D02*
X14329706Y-10972793D01*
X14329706Y-10972793D02*
X14320182Y-10953746D01*
X14320182Y-10953746D02*
X14320182Y-10944222D01*
X14320182Y-10944222D02*
X14329706Y-10925174D01*
X14329706Y-10925174D02*
X14348753Y-10915650D01*
X14348753Y-10915650D02*
X14377325Y-10915650D01*
X14377325Y-10915650D02*
X14396372Y-10925174D01*
X14472563Y-11125174D02*
X14482087Y-11115650D01*
X14482087Y-11115650D02*
X14501134Y-11087079D01*
X14501134Y-11087079D02*
X14510658Y-11068031D01*
X14510658Y-11068031D02*
X14520182Y-11039460D01*
X14520182Y-11039460D02*
X14529706Y-10991841D01*
X14529706Y-10991841D02*
X14529706Y-10953746D01*
X14529706Y-10953746D02*
X14520182Y-10906127D01*
X14520182Y-10906127D02*
X14510658Y-10877555D01*
X14510658Y-10877555D02*
X14501134Y-10858508D01*
X14501134Y-10858508D02*
X14482087Y-10829936D01*
X14482087Y-10829936D02*
X14472563Y-10820412D01*
X14834468Y-11125174D02*
X14824944Y-11115650D01*
X14824944Y-11115650D02*
X14805896Y-11087079D01*
X14805896Y-11087079D02*
X14796372Y-11068031D01*
X14796372Y-11068031D02*
X14786849Y-11039460D01*
X14786849Y-11039460D02*
X14777325Y-10991841D01*
X14777325Y-10991841D02*
X14777325Y-10953746D01*
X14777325Y-10953746D02*
X14786849Y-10906127D01*
X14786849Y-10906127D02*
X14796372Y-10877555D01*
X14796372Y-10877555D02*
X14805896Y-10858508D01*
X14805896Y-10858508D02*
X14824944Y-10829936D01*
X14824944Y-10829936D02*
X14834468Y-10820412D01*
X14910658Y-10915650D02*
X14910658Y-11048984D01*
X14910658Y-10934698D02*
X14920182Y-10925174D01*
X14920182Y-10925174D02*
X14939230Y-10915650D01*
X14939230Y-10915650D02*
X14967801Y-10915650D01*
X14967801Y-10915650D02*
X14986849Y-10925174D01*
X14986849Y-10925174D02*
X14996372Y-10944222D01*
X14996372Y-10944222D02*
X14996372Y-11048984D01*
X15120182Y-11048984D02*
X15101134Y-11039460D01*
X15101134Y-11039460D02*
X15091611Y-11029936D01*
X15091611Y-11029936D02*
X15082087Y-11010889D01*
X15082087Y-11010889D02*
X15082087Y-10953746D01*
X15082087Y-10953746D02*
X15091611Y-10934698D01*
X15091611Y-10934698D02*
X15101134Y-10925174D01*
X15101134Y-10925174D02*
X15120182Y-10915650D01*
X15120182Y-10915650D02*
X15148753Y-10915650D01*
X15148753Y-10915650D02*
X15167801Y-10925174D01*
X15167801Y-10925174D02*
X15177325Y-10934698D01*
X15177325Y-10934698D02*
X15186849Y-10953746D01*
X15186849Y-10953746D02*
X15186849Y-11010889D01*
X15186849Y-11010889D02*
X15177325Y-11029936D01*
X15177325Y-11029936D02*
X15167801Y-11039460D01*
X15167801Y-11039460D02*
X15148753Y-11048984D01*
X15148753Y-11048984D02*
X15120182Y-11048984D01*
X15243992Y-10915650D02*
X15320182Y-10915650D01*
X15272563Y-10848984D02*
X15272563Y-11020412D01*
X15272563Y-11020412D02*
X15282087Y-11039460D01*
X15282087Y-11039460D02*
X15301134Y-11048984D01*
X15301134Y-11048984D02*
X15320182Y-11048984D01*
X15539230Y-10915650D02*
X15539230Y-11115650D01*
X15539230Y-10925174D02*
X15558277Y-10915650D01*
X15558277Y-10915650D02*
X15596373Y-10915650D01*
X15596373Y-10915650D02*
X15615420Y-10925174D01*
X15615420Y-10925174D02*
X15624944Y-10934698D01*
X15624944Y-10934698D02*
X15634468Y-10953746D01*
X15634468Y-10953746D02*
X15634468Y-11010889D01*
X15634468Y-11010889D02*
X15624944Y-11029936D01*
X15624944Y-11029936D02*
X15615420Y-11039460D01*
X15615420Y-11039460D02*
X15596373Y-11048984D01*
X15596373Y-11048984D02*
X15558277Y-11048984D01*
X15558277Y-11048984D02*
X15539230Y-11039460D01*
X15748753Y-11048984D02*
X15729706Y-11039460D01*
X15729706Y-11039460D02*
X15720182Y-11020412D01*
X15720182Y-11020412D02*
X15720182Y-10848984D01*
X15910658Y-11048984D02*
X15910658Y-10944222D01*
X15910658Y-10944222D02*
X15901134Y-10925174D01*
X15901134Y-10925174D02*
X15882087Y-10915650D01*
X15882087Y-10915650D02*
X15843992Y-10915650D01*
X15843992Y-10915650D02*
X15824944Y-10925174D01*
X15910658Y-11039460D02*
X15891611Y-11048984D01*
X15891611Y-11048984D02*
X15843992Y-11048984D01*
X15843992Y-11048984D02*
X15824944Y-11039460D01*
X15824944Y-11039460D02*
X15815420Y-11020412D01*
X15815420Y-11020412D02*
X15815420Y-11001365D01*
X15815420Y-11001365D02*
X15824944Y-10982317D01*
X15824944Y-10982317D02*
X15843992Y-10972793D01*
X15843992Y-10972793D02*
X15891611Y-10972793D01*
X15891611Y-10972793D02*
X15910658Y-10963270D01*
X15977325Y-10915650D02*
X16053515Y-10915650D01*
X16005896Y-10848984D02*
X16005896Y-11020412D01*
X16005896Y-11020412D02*
X16015420Y-11039460D01*
X16015420Y-11039460D02*
X16034468Y-11048984D01*
X16034468Y-11048984D02*
X16053515Y-11048984D01*
X16196373Y-11039460D02*
X16177325Y-11048984D01*
X16177325Y-11048984D02*
X16139230Y-11048984D01*
X16139230Y-11048984D02*
X16120182Y-11039460D01*
X16120182Y-11039460D02*
X16110658Y-11020412D01*
X16110658Y-11020412D02*
X16110658Y-10944222D01*
X16110658Y-10944222D02*
X16120182Y-10925174D01*
X16120182Y-10925174D02*
X16139230Y-10915650D01*
X16139230Y-10915650D02*
X16177325Y-10915650D01*
X16177325Y-10915650D02*
X16196373Y-10925174D01*
X16196373Y-10925174D02*
X16205896Y-10944222D01*
X16205896Y-10944222D02*
X16205896Y-10963270D01*
X16205896Y-10963270D02*
X16110658Y-10982317D01*
X16377325Y-11048984D02*
X16377325Y-10848984D01*
X16377325Y-11039460D02*
X16358277Y-11048984D01*
X16358277Y-11048984D02*
X16320182Y-11048984D01*
X16320182Y-11048984D02*
X16301134Y-11039460D01*
X16301134Y-11039460D02*
X16291611Y-11029936D01*
X16291611Y-11029936D02*
X16282087Y-11010889D01*
X16282087Y-11010889D02*
X16282087Y-10953746D01*
X16282087Y-10953746D02*
X16291611Y-10934698D01*
X16291611Y-10934698D02*
X16301134Y-10925174D01*
X16301134Y-10925174D02*
X16320182Y-10915650D01*
X16320182Y-10915650D02*
X16358277Y-10915650D01*
X16358277Y-10915650D02*
X16377325Y-10925174D01*
X16453515Y-11125174D02*
X16463039Y-11115650D01*
X16463039Y-11115650D02*
X16482087Y-11087079D01*
X16482087Y-11087079D02*
X16491611Y-11068031D01*
X16491611Y-11068031D02*
X16501134Y-11039460D01*
X16501134Y-11039460D02*
X16510658Y-10991841D01*
X16510658Y-10991841D02*
X16510658Y-10953746D01*
X16510658Y-10953746D02*
X16501134Y-10906127D01*
X16501134Y-10906127D02*
X16491611Y-10877555D01*
X16491611Y-10877555D02*
X16482087Y-10858508D01*
X16482087Y-10858508D02*
X16463039Y-10829936D01*
X16463039Y-10829936D02*
X16453515Y-10820412D01*
M02*
