%TF.GenerationSoftware,KiCad,Pcbnew,8.0.0*%
%TF.CreationDate,2024-03-12T01:26:03-04:00*%
%TF.ProjectId,mediaKeeb_V1,6d656469-614b-4656-9562-5f56312e6b69,rev?*%
%TF.SameCoordinates,Original*%
%TF.FileFunction,Legend,Top*%
%TF.FilePolarity,Positive*%
%FSLAX46Y46*%
G04 Gerber Fmt 4.6, Leading zero omitted, Abs format (unit mm)*
G04 Created by KiCad (PCBNEW 8.0.0) date 2024-03-12 01:26:03*
%MOMM*%
%LPD*%
G01*
G04 APERTURE LIST*
%ADD10C,0.150000*%
%ADD11C,0.120000*%
G04 APERTURE END LIST*
D10*
X156117917Y-73837200D02*
X156260774Y-73884819D01*
X156260774Y-73884819D02*
X156498869Y-73884819D01*
X156498869Y-73884819D02*
X156594107Y-73837200D01*
X156594107Y-73837200D02*
X156641726Y-73789580D01*
X156641726Y-73789580D02*
X156689345Y-73694342D01*
X156689345Y-73694342D02*
X156689345Y-73599104D01*
X156689345Y-73599104D02*
X156641726Y-73503866D01*
X156641726Y-73503866D02*
X156594107Y-73456247D01*
X156594107Y-73456247D02*
X156498869Y-73408628D01*
X156498869Y-73408628D02*
X156308393Y-73361009D01*
X156308393Y-73361009D02*
X156213155Y-73313390D01*
X156213155Y-73313390D02*
X156165536Y-73265771D01*
X156165536Y-73265771D02*
X156117917Y-73170533D01*
X156117917Y-73170533D02*
X156117917Y-73075295D01*
X156117917Y-73075295D02*
X156165536Y-72980057D01*
X156165536Y-72980057D02*
X156213155Y-72932438D01*
X156213155Y-72932438D02*
X156308393Y-72884819D01*
X156308393Y-72884819D02*
X156546488Y-72884819D01*
X156546488Y-72884819D02*
X156689345Y-72932438D01*
X157022679Y-72884819D02*
X157260774Y-73884819D01*
X157260774Y-73884819D02*
X157451250Y-73170533D01*
X157451250Y-73170533D02*
X157641726Y-73884819D01*
X157641726Y-73884819D02*
X157879822Y-72884819D01*
X158689345Y-72884819D02*
X158498869Y-72884819D01*
X158498869Y-72884819D02*
X158403631Y-72932438D01*
X158403631Y-72932438D02*
X158356012Y-72980057D01*
X158356012Y-72980057D02*
X158260774Y-73122914D01*
X158260774Y-73122914D02*
X158213155Y-73313390D01*
X158213155Y-73313390D02*
X158213155Y-73694342D01*
X158213155Y-73694342D02*
X158260774Y-73789580D01*
X158260774Y-73789580D02*
X158308393Y-73837200D01*
X158308393Y-73837200D02*
X158403631Y-73884819D01*
X158403631Y-73884819D02*
X158594107Y-73884819D01*
X158594107Y-73884819D02*
X158689345Y-73837200D01*
X158689345Y-73837200D02*
X158736964Y-73789580D01*
X158736964Y-73789580D02*
X158784583Y-73694342D01*
X158784583Y-73694342D02*
X158784583Y-73456247D01*
X158784583Y-73456247D02*
X158736964Y-73361009D01*
X158736964Y-73361009D02*
X158689345Y-73313390D01*
X158689345Y-73313390D02*
X158594107Y-73265771D01*
X158594107Y-73265771D02*
X158403631Y-73265771D01*
X158403631Y-73265771D02*
X158308393Y-73313390D01*
X158308393Y-73313390D02*
X158260774Y-73361009D01*
X158260774Y-73361009D02*
X158213155Y-73456247D01*
X137117917Y-73837200D02*
X137260774Y-73884819D01*
X137260774Y-73884819D02*
X137498869Y-73884819D01*
X137498869Y-73884819D02*
X137594107Y-73837200D01*
X137594107Y-73837200D02*
X137641726Y-73789580D01*
X137641726Y-73789580D02*
X137689345Y-73694342D01*
X137689345Y-73694342D02*
X137689345Y-73599104D01*
X137689345Y-73599104D02*
X137641726Y-73503866D01*
X137641726Y-73503866D02*
X137594107Y-73456247D01*
X137594107Y-73456247D02*
X137498869Y-73408628D01*
X137498869Y-73408628D02*
X137308393Y-73361009D01*
X137308393Y-73361009D02*
X137213155Y-73313390D01*
X137213155Y-73313390D02*
X137165536Y-73265771D01*
X137165536Y-73265771D02*
X137117917Y-73170533D01*
X137117917Y-73170533D02*
X137117917Y-73075295D01*
X137117917Y-73075295D02*
X137165536Y-72980057D01*
X137165536Y-72980057D02*
X137213155Y-72932438D01*
X137213155Y-72932438D02*
X137308393Y-72884819D01*
X137308393Y-72884819D02*
X137546488Y-72884819D01*
X137546488Y-72884819D02*
X137689345Y-72932438D01*
X138022679Y-72884819D02*
X138260774Y-73884819D01*
X138260774Y-73884819D02*
X138451250Y-73170533D01*
X138451250Y-73170533D02*
X138641726Y-73884819D01*
X138641726Y-73884819D02*
X138879822Y-72884819D01*
X139736964Y-72884819D02*
X139260774Y-72884819D01*
X139260774Y-72884819D02*
X139213155Y-73361009D01*
X139213155Y-73361009D02*
X139260774Y-73313390D01*
X139260774Y-73313390D02*
X139356012Y-73265771D01*
X139356012Y-73265771D02*
X139594107Y-73265771D01*
X139594107Y-73265771D02*
X139689345Y-73313390D01*
X139689345Y-73313390D02*
X139736964Y-73361009D01*
X139736964Y-73361009D02*
X139784583Y-73456247D01*
X139784583Y-73456247D02*
X139784583Y-73694342D01*
X139784583Y-73694342D02*
X139736964Y-73789580D01*
X139736964Y-73789580D02*
X139689345Y-73837200D01*
X139689345Y-73837200D02*
X139594107Y-73884819D01*
X139594107Y-73884819D02*
X139356012Y-73884819D01*
X139356012Y-73884819D02*
X139260774Y-73837200D01*
X139260774Y-73837200D02*
X139213155Y-73789580D01*
X118117917Y-73837200D02*
X118260774Y-73884819D01*
X118260774Y-73884819D02*
X118498869Y-73884819D01*
X118498869Y-73884819D02*
X118594107Y-73837200D01*
X118594107Y-73837200D02*
X118641726Y-73789580D01*
X118641726Y-73789580D02*
X118689345Y-73694342D01*
X118689345Y-73694342D02*
X118689345Y-73599104D01*
X118689345Y-73599104D02*
X118641726Y-73503866D01*
X118641726Y-73503866D02*
X118594107Y-73456247D01*
X118594107Y-73456247D02*
X118498869Y-73408628D01*
X118498869Y-73408628D02*
X118308393Y-73361009D01*
X118308393Y-73361009D02*
X118213155Y-73313390D01*
X118213155Y-73313390D02*
X118165536Y-73265771D01*
X118165536Y-73265771D02*
X118117917Y-73170533D01*
X118117917Y-73170533D02*
X118117917Y-73075295D01*
X118117917Y-73075295D02*
X118165536Y-72980057D01*
X118165536Y-72980057D02*
X118213155Y-72932438D01*
X118213155Y-72932438D02*
X118308393Y-72884819D01*
X118308393Y-72884819D02*
X118546488Y-72884819D01*
X118546488Y-72884819D02*
X118689345Y-72932438D01*
X119022679Y-72884819D02*
X119260774Y-73884819D01*
X119260774Y-73884819D02*
X119451250Y-73170533D01*
X119451250Y-73170533D02*
X119641726Y-73884819D01*
X119641726Y-73884819D02*
X119879822Y-72884819D01*
X120689345Y-73218152D02*
X120689345Y-73884819D01*
X120451250Y-72837200D02*
X120213155Y-73551485D01*
X120213155Y-73551485D02*
X120832202Y-73551485D01*
X156117917Y-54837200D02*
X156260774Y-54884819D01*
X156260774Y-54884819D02*
X156498869Y-54884819D01*
X156498869Y-54884819D02*
X156594107Y-54837200D01*
X156594107Y-54837200D02*
X156641726Y-54789580D01*
X156641726Y-54789580D02*
X156689345Y-54694342D01*
X156689345Y-54694342D02*
X156689345Y-54599104D01*
X156689345Y-54599104D02*
X156641726Y-54503866D01*
X156641726Y-54503866D02*
X156594107Y-54456247D01*
X156594107Y-54456247D02*
X156498869Y-54408628D01*
X156498869Y-54408628D02*
X156308393Y-54361009D01*
X156308393Y-54361009D02*
X156213155Y-54313390D01*
X156213155Y-54313390D02*
X156165536Y-54265771D01*
X156165536Y-54265771D02*
X156117917Y-54170533D01*
X156117917Y-54170533D02*
X156117917Y-54075295D01*
X156117917Y-54075295D02*
X156165536Y-53980057D01*
X156165536Y-53980057D02*
X156213155Y-53932438D01*
X156213155Y-53932438D02*
X156308393Y-53884819D01*
X156308393Y-53884819D02*
X156546488Y-53884819D01*
X156546488Y-53884819D02*
X156689345Y-53932438D01*
X157022679Y-53884819D02*
X157260774Y-54884819D01*
X157260774Y-54884819D02*
X157451250Y-54170533D01*
X157451250Y-54170533D02*
X157641726Y-54884819D01*
X157641726Y-54884819D02*
X157879822Y-53884819D01*
X158165536Y-53884819D02*
X158784583Y-53884819D01*
X158784583Y-53884819D02*
X158451250Y-54265771D01*
X158451250Y-54265771D02*
X158594107Y-54265771D01*
X158594107Y-54265771D02*
X158689345Y-54313390D01*
X158689345Y-54313390D02*
X158736964Y-54361009D01*
X158736964Y-54361009D02*
X158784583Y-54456247D01*
X158784583Y-54456247D02*
X158784583Y-54694342D01*
X158784583Y-54694342D02*
X158736964Y-54789580D01*
X158736964Y-54789580D02*
X158689345Y-54837200D01*
X158689345Y-54837200D02*
X158594107Y-54884819D01*
X158594107Y-54884819D02*
X158308393Y-54884819D01*
X158308393Y-54884819D02*
X158213155Y-54837200D01*
X158213155Y-54837200D02*
X158165536Y-54789580D01*
X137117917Y-54837200D02*
X137260774Y-54884819D01*
X137260774Y-54884819D02*
X137498869Y-54884819D01*
X137498869Y-54884819D02*
X137594107Y-54837200D01*
X137594107Y-54837200D02*
X137641726Y-54789580D01*
X137641726Y-54789580D02*
X137689345Y-54694342D01*
X137689345Y-54694342D02*
X137689345Y-54599104D01*
X137689345Y-54599104D02*
X137641726Y-54503866D01*
X137641726Y-54503866D02*
X137594107Y-54456247D01*
X137594107Y-54456247D02*
X137498869Y-54408628D01*
X137498869Y-54408628D02*
X137308393Y-54361009D01*
X137308393Y-54361009D02*
X137213155Y-54313390D01*
X137213155Y-54313390D02*
X137165536Y-54265771D01*
X137165536Y-54265771D02*
X137117917Y-54170533D01*
X137117917Y-54170533D02*
X137117917Y-54075295D01*
X137117917Y-54075295D02*
X137165536Y-53980057D01*
X137165536Y-53980057D02*
X137213155Y-53932438D01*
X137213155Y-53932438D02*
X137308393Y-53884819D01*
X137308393Y-53884819D02*
X137546488Y-53884819D01*
X137546488Y-53884819D02*
X137689345Y-53932438D01*
X138022679Y-53884819D02*
X138260774Y-54884819D01*
X138260774Y-54884819D02*
X138451250Y-54170533D01*
X138451250Y-54170533D02*
X138641726Y-54884819D01*
X138641726Y-54884819D02*
X138879822Y-53884819D01*
X139213155Y-53980057D02*
X139260774Y-53932438D01*
X139260774Y-53932438D02*
X139356012Y-53884819D01*
X139356012Y-53884819D02*
X139594107Y-53884819D01*
X139594107Y-53884819D02*
X139689345Y-53932438D01*
X139689345Y-53932438D02*
X139736964Y-53980057D01*
X139736964Y-53980057D02*
X139784583Y-54075295D01*
X139784583Y-54075295D02*
X139784583Y-54170533D01*
X139784583Y-54170533D02*
X139736964Y-54313390D01*
X139736964Y-54313390D02*
X139165536Y-54884819D01*
X139165536Y-54884819D02*
X139784583Y-54884819D01*
X118107917Y-54837200D02*
X118250774Y-54884819D01*
X118250774Y-54884819D02*
X118488869Y-54884819D01*
X118488869Y-54884819D02*
X118584107Y-54837200D01*
X118584107Y-54837200D02*
X118631726Y-54789580D01*
X118631726Y-54789580D02*
X118679345Y-54694342D01*
X118679345Y-54694342D02*
X118679345Y-54599104D01*
X118679345Y-54599104D02*
X118631726Y-54503866D01*
X118631726Y-54503866D02*
X118584107Y-54456247D01*
X118584107Y-54456247D02*
X118488869Y-54408628D01*
X118488869Y-54408628D02*
X118298393Y-54361009D01*
X118298393Y-54361009D02*
X118203155Y-54313390D01*
X118203155Y-54313390D02*
X118155536Y-54265771D01*
X118155536Y-54265771D02*
X118107917Y-54170533D01*
X118107917Y-54170533D02*
X118107917Y-54075295D01*
X118107917Y-54075295D02*
X118155536Y-53980057D01*
X118155536Y-53980057D02*
X118203155Y-53932438D01*
X118203155Y-53932438D02*
X118298393Y-53884819D01*
X118298393Y-53884819D02*
X118536488Y-53884819D01*
X118536488Y-53884819D02*
X118679345Y-53932438D01*
X119012679Y-53884819D02*
X119250774Y-54884819D01*
X119250774Y-54884819D02*
X119441250Y-54170533D01*
X119441250Y-54170533D02*
X119631726Y-54884819D01*
X119631726Y-54884819D02*
X119869822Y-53884819D01*
X120774583Y-54884819D02*
X120203155Y-54884819D01*
X120488869Y-54884819D02*
X120488869Y-53884819D01*
X120488869Y-53884819D02*
X120393631Y-54027676D01*
X120393631Y-54027676D02*
X120298393Y-54122914D01*
X120298393Y-54122914D02*
X120203155Y-54170533D01*
X103747916Y-82304819D02*
X103747916Y-83019104D01*
X103747916Y-83019104D02*
X103700297Y-83161961D01*
X103700297Y-83161961D02*
X103605059Y-83257200D01*
X103605059Y-83257200D02*
X103462202Y-83304819D01*
X103462202Y-83304819D02*
X103366964Y-83304819D01*
X104747916Y-83304819D02*
X104176488Y-83304819D01*
X104462202Y-83304819D02*
X104462202Y-82304819D01*
X104462202Y-82304819D02*
X104366964Y-82447676D01*
X104366964Y-82447676D02*
X104271726Y-82542914D01*
X104271726Y-82542914D02*
X104176488Y-82590533D01*
D11*
%TO.C,SW6*%
X150351250Y-74330000D02*
X150351250Y-88530000D01*
X150351250Y-88530000D02*
X164551250Y-88530000D01*
X164551250Y-88530000D02*
X164551250Y-74330000D01*
X164551250Y-74330000D02*
X150351250Y-74330000D01*
%TO.C,SW5*%
X145551250Y-74330000D02*
X131351250Y-74330000D01*
X145551250Y-88530000D02*
X145551250Y-74330000D01*
X131351250Y-88530000D02*
X145551250Y-88530000D01*
X131351250Y-74330000D02*
X131351250Y-88530000D01*
%TO.C,SW4*%
X126551250Y-74330000D02*
X112351250Y-74330000D01*
X126551250Y-88530000D02*
X126551250Y-74330000D01*
X112351250Y-88530000D02*
X126551250Y-88530000D01*
X112351250Y-74330000D02*
X112351250Y-88530000D01*
%TO.C,SW3*%
X150351250Y-55330000D02*
X150351250Y-69530000D01*
X150351250Y-69530000D02*
X164551250Y-69530000D01*
X164551250Y-69530000D02*
X164551250Y-55330000D01*
X164551250Y-55330000D02*
X150351250Y-55330000D01*
%TO.C,SW2*%
X145551250Y-55330000D02*
X131351250Y-55330000D01*
X145551250Y-69530000D02*
X145551250Y-55330000D01*
X131351250Y-69530000D02*
X145551250Y-69530000D01*
X131351250Y-55330000D02*
X131351250Y-69530000D01*
%TO.C,SW1*%
X126541250Y-55330000D02*
X112341250Y-55330000D01*
X126541250Y-69530000D02*
X126541250Y-55330000D01*
X112341250Y-69530000D02*
X126541250Y-69530000D01*
X112341250Y-55330000D02*
X112341250Y-69530000D01*
%TO.C,J1*%
X105411250Y-81850000D02*
X104081250Y-81850000D01*
X105411250Y-80520000D02*
X105411250Y-81850000D01*
X105411250Y-79250000D02*
X105411250Y-69030000D01*
X105411250Y-79250000D02*
X102751250Y-79250000D01*
X105411250Y-69030000D02*
X102751250Y-69030000D01*
X102751250Y-79250000D02*
X102751250Y-69030000D01*
%TD*%
M02*
